<?xml version="1.0" encoding="UTF-8" standalone="no"?>
<!-- Created with Inkscape (http://www.inkscape.org/) -->

<svg
        xmlns:dc="http://purl.org/dc/elements/1.1/"
        xmlns:cc="http://creativecommons.org/ns#"
        xmlns:rdf="http://www.w3.org/1999/02/22-rdf-syntax-ns#"
        xmlns="http://www.w3.org/2000/svg"
        xmlns:sodipodi="http://sodipodi.sourceforge.net/DTD/sodipodi-0.dtd"
        xmlns:inkscape="http://www.inkscape.org/namespaces/inkscape"
        id="svg3069"
        version="1.1"
        inkscape:version="0.48.3.1 r9886"
        width="500"
        height="500"
        sodipodi:docname="puddletag2.svg">
    <metadata
            id="metadata3075">
        <rdf:RDF>
            <cc:Work
                    rdf:about="">
                <dc:format>image/svg+xml</dc:format>
                <dc:type
                        rdf:resource="http://purl.org/dc/dcmitype/StillImage"/>
                <dc:title/>
            </cc:Work>
        </rdf:RDF>
    </metadata>
    <defs
            id="defs3073"/>
    <sodipodi:namedview
            pagecolor="#ffffff"
            bordercolor="#666666"
            borderopacity="1"
            objecttolerance="10"
            gridtolerance="10"
            guidetolerance="10"
            inkscape:pageopacity="0"
            inkscape:pageshadow="2"
            inkscape:window-width="1366"
            inkscape:window-height="723"
            id="namedview3071"
            showgrid="false"
            inkscape:zoom="0.5"
            inkscape:cx="-672.41179"
            inkscape:cy="-229.22999"
            inkscape:window-x="0"
            inkscape:window-y="0"
            inkscape:window-maximized="1"
            inkscape:current-layer="svg3069"/>
    <g
            id="g3079"
            transform="scale(5.2083334,5.2083334)">
        <path
                style="fill:#d8d8d5;fill-opacity:1"
                d="m 54,73.960178 c -0.896222,-0.602976 -4.720151,-0.767025 -9.5,-0.407555 -6.298339,0.473668 -8.85083,0.240499 -12,-1.096196 C 29.91523,71.359297 26.00465,70.78679 21.447154,70.838298 16.157638,70.898079 13.607103,70.43928 11.245702,69.003226 3.9238491,64.550542 3.0512001,55.090479 9.4236097,49.250601 11.374471,47.462771 13.827157,46 14.874024,46 c 1.375484,0 2.08153,-0.949545 2.545667,-3.423611 C 18.140459,38.734365 23.87694,33 26.999612,33 c 1.061511,0 2.424573,-0.92408 3.029026,-2.053511 2.577866,-4.816787 11.295807,-7.44877 16.120291,-4.866785 1.576732,0.843842 2.427311,0.708781 3.893678,-0.618263 4.527779,-4.097584 15.334412,-2.423907 18.072066,2.798909 0.645678,1.231808 2.672598,3.915805 4.504264,5.964439 1.831667,2.048633 3.636012,4.973633 4.009655,6.5 0.794046,3.243743 1.635147,3.932911 6.419037,5.259525 7.810825,2.16601 12.045333,11.067663 8.513663,17.897161 -2.039343,3.943653 -7.01662,7.109799 -11.184662,7.114787 -1.717853,0.0021 -6.667853,0.896829 -11,1.988385 C 60.617331,75.191697 56.242934,75.469219 54,73.960178 z"
                id="path3093"
                inkscape:connector-curvature="0"/>
        <path
                style="fill:#a0a0a0"
                d="m 54,73.960178 c -0.896222,-0.602976 -4.720151,-0.767025 -9.5,-0.407555 -6.298339,0.473668 -8.85083,0.240499 -12,-1.096196 C 29.91523,71.359297 26.00465,70.78679 21.447154,70.838298 16.157638,70.898079 13.607103,70.43928 11.245702,69.003226 3.9238491,64.550542 3.0512001,55.090479 9.4236097,49.250601 11.374471,47.462771 13.827157,46 14.874024,46 c 1.375484,0 2.08153,-0.949545 2.545667,-3.423611 C 18.140459,38.734365 23.87694,33 26.999612,33 c 1.061511,0 2.424573,-0.92408 3.029026,-2.053511 2.577866,-4.816787 11.295807,-7.44877 16.120291,-4.866785 1.576732,0.843842 2.427311,0.708781 3.893678,-0.618263 4.527779,-4.097584 15.334412,-2.423907 18.072066,2.798909 0.645678,1.231808 2.672598,3.915805 4.504264,5.964439 1.831667,2.048633 3.636012,4.973633 4.009655,6.5 0.794046,3.243743 1.635147,3.932911 6.419037,5.259525 7.810825,2.16601 12.045333,11.067663 8.513663,17.897161 -2.039343,3.943653 -7.01662,7.109799 -11.184662,7.114787 -1.717853,0.0021 -6.667853,0.896829 -11,1.988385 C 60.617331,75.191697 56.242934,75.469219 54,73.960178 z M 36.892228,66.25 C 35.137153,62.843967 33.58779,57.850299 33.091477,54 32.422463,48.809929 32.228055,48.319914 32.126805,51.568499 31.976261,56.398661 34.18122,64.221781 36.969439,68.75 c 3.194494,5.188033 3.150513,3.763966 -0.07721,-2.5 z M 63.25,71.337719 c -0.6875,-0.277412 -1.8125,-0.277412 -2.5,0 -0.6875,0.277413 -0.125,0.504386 1.25,0.504386 1.375,0 1.9375,-0.226973 1.25,-0.504386 z M 42.0484,68.067972 c -1.148283,-1.612615 -2.736312,-4.425115 -3.528952,-6.25 -0.79264,-1.824885 -1.458778,-2.733125 -1.480306,-2.018312 -0.04922,1.63447 2.709264,7.138327 4.736435,9.45034 2.410553,2.749266 2.572509,2.047582 0.272823,-1.182028 z m 4.333426,-0.624596 c -1.84488,-1.956142 -4.004171,-5.668642 -4.798425,-8.25 C 40.789147,56.612019 40.10796,55.301953 40.069652,56.282119 39.920387,60.101232 46.501553,71 48.956971,71 c 0.428551,0 -0.730264,-1.600481 -2.575145,-3.556624 z m 9.865213,2.224504 C 52.147786,68.180935 47.12122,63.484807 45.400012,59.533918 44.673062,57.865263 44.06067,57.219983 44.039142,58.099962 43.933565,62.415527 53.367456,71.065786 58,70.901152 58.825,70.871832 58.03617,70.31686 56.247039,69.66788 z m 11.482128,0.727953 c -0.332292,-0.332291 -1.194792,-0.367818 -1.916667,-0.07895 -0.797733,0.319226 -0.560776,0.556183 0.604167,0.604167 1.054166,0.04342 1.644791,-0.192928 1.3125,-0.52522 z M 32.039733,64.898896 c -1.097695,-2.419393 -2.005692,-3.851663 -2.017771,-3.182823 -0.02641,1.462447 3.193482,8.401816 3.675033,7.920266 0.1862,-0.186201 -0.559567,-2.31805 -1.657262,-4.737443 z m 42.981814,1.314851 c 4.417966,-4.417966 6.626924,-10.961462 5.282669,-15.648607 -0.763407,-2.661846 -0.875645,-2.34447 -0.875645,2.476078 0,6.470257 -2.684932,11.645085 -7.712854,14.86544 -1.768644,1.132807 -2.600276,2.06723 -1.84807,2.076495 0.752206,0.0093 3.071461,-1.686967 5.1539,-3.769406 z M 28.311592,65.25 C 27.439096,63.1875 26.369644,57.9 25.935032,53.5 l -0.790205,-8 0.27629,8 c 0.240416,6.961286 2.431191,15.5 3.97683,15.5 0.275,0 -0.21386,-1.6875 -1.086355,-3.75 z M 16.444444,63.555556 c -0.376486,-2.006847 -0.884521,-3.448813 -1.128965,-3.204368 -0.244445,0.244444 -0.13641,2.08641 0.240077,4.093256 0.376486,2.006847 0.884521,3.448813 1.128965,3.204368 0.244445,-0.244444 0.13641,-2.08641 -0.240077,-4.093256 z m 4.013,1.694444 C 20.03979,63.7375 19.383919,59.125 18.999954,55 l -0.698119,-7.5 -0.150918,5.80718 C 18.009704,58.740971 19.633161,68 20.727123,68 c 0.269331,0 0.147976,-1.2375 -0.269679,-2.75 z M 23.499381,62 c -0.73111,-3.025 -1.365051,-4.6 -1.408759,-3.5 -0.08927,2.246672 1.867678,9.876313 2.396609,9.343771 C 24.675024,67.654697 24.230491,65.025 23.499381,62 z m 45.429534,4.248446 C 75.780866,62.754552 78.646602,54.876637 75.66311,47.736133 74.146637,44.106703 68.98664,39.989414 66,40.0257 c -0.825,0.01002 0.334138,0.851256 2.575861,1.869406 9.522585,4.324984 9.739403,18.248728 0.362475,23.277629 -6.15895,3.303081 -12.653365,1.998271 -17.875517,-3.591417 C 47.411673,57.673203 46.965469,48.772607 50.181433,44 54.505081,37.583551 63.795775,35.097518 70.5,38.563094 c 2.890883,1.494367 2.93505,1.48505 1.214286,-0.256161 C 70.362534,36.939119 68.375447,36.5 63.537616,36.5 c -7.169256,0 -10.301912,1.654338 -14.376116,7.591948 -3.008843,4.384986 -2.714173,12.918782 0.60714,17.583136 4.255843,5.976782 12.533316,7.95253 19.160275,4.573362 z m 13.15325,-3.621817 C 83.199179,60.166799 83.909682,56.480436 83.841214,53.5 l -0.114862,-5 -0.698716,6.115864 c -0.416678,3.647187 -1.649494,7.654255 -3.054159,9.927051 -1.295494,2.096153 -1.772644,3.450997 -1.060333,3.010765 0.71231,-0.440232 2.13837,-2.657405 3.169021,-4.927051 z M 87.521088,55.691142 87.934004,50.5 86.968496,55.79677 c -0.531029,2.913223 -1.64118,6.603376 -2.467002,8.20034 -0.825821,1.596964 -1.481606,3.263417 -1.457298,3.70323 0.02431,0.439813 0.948646,-0.914326 2.054086,-3.009198 1.105439,-2.094872 2.195702,-6.144872 2.422806,-9 z M 12.089327,60.936905 C 11.576548,58.322378 11.179738,57.52683 11.12322,59 c -0.103785,2.70526 0.90968,7.300433 1.483545,6.726568 0.194017,-0.194016 -0.03883,-2.349365 -0.517438,-4.789663 z m 47.529975,2.028672 C 56.148096,61.926253 52,58.220631 52,56.159019 c 0,-0.820794 -0.300678,-1.191674 -0.668173,-0.824179 -1.086429,1.086428 1.885362,5.710963 4.629248,7.203779 C 57.357484,63.298337 59.4,63.899263 60.5,63.87401 61.882273,63.84228 61.610258,63.561694 59.619302,62.965577 z M 70.076923,61.076923 C 72.366888,58.786958 73,57.256583 73,54.011182 73,48.77387 71.744295,46.43625 67.848874,44.42185 63.780819,42.318177 58.707431,43.285189 56.043331,46.672043 49.705435,54.729372 59.781973,65.129945 67.75,58.755166 68.4375,58.205136 69,57.32755 69,56.804975 c 0,-0.522574 -1.185686,-0.01747 -2.634859,1.122445 -3.460164,2.721766 -5.911964,2.616666 -8.910596,-0.381965 -4.771766,-4.771767 -2.218286,-12.084099 4.600777,-13.17512 8.410849,-1.3457 13.544693,9.756922 7.36779,15.933826 -1.417289,1.417289 -3.554789,2.76737 -4.75,3.000182 -2.090737,0.407247 -2.084907,0.428455 0.153811,0.559475 1.370931,0.08023 3.527839,-1.064734 5.25,-2.786895 z M 29.689326,55.25 c -0.251528,-0.9625 -0.457323,-0.175 -0.457323,1.75 0,1.925 0.205795,2.7125 0.457323,1.75 0.251527,-0.9625 0.251527,-2.5375 0,-3.5 z m -14.973072,-4 c -0.229124,-1.5125 -0.41659,-0.275 -0.41659,2.75 0,3.025 0.187466,4.2625 0.41659,2.75 0.229125,-1.5125 0.229125,-3.9875 0,-5.5 z M 39.429735,41 C 42.84882,34.330181 49.082642,29.036537 55.993526,26.934341 58.025911,26.316117 58.121709,26.157423 56.5,26.095337 53.001807,25.961411 44.256255,31.764696 41.214817,36.238125 c -3.952553,5.813521 -5.24127,10.050051 -5.068166,16.661098 l 0.14665,5.600777 0.671132,-7 c 0.369122,-3.85 1.478508,-8.575 2.465302,-10.5 z m 26.37436,12.877747 c 0.201842,-1.740509 -0.266037,-2.841033 -1.391443,-3.272892 -1.417526,-0.543956 -1.490036,-0.403023 -0.44222,0.859518 0.689326,0.830586 0.992098,2.190888 0.672828,3.022892 -0.791114,2.061612 -4.311641,1.911464 -5.563161,-0.237265 -0.560605,-0.9625 -1.032966,-1.2775 -1.04969,-0.7 -0.0556,1.920009 2.423011,3.539754 4.962567,3.242976 1.866864,-0.218165 2.584674,-0.96256 2.811119,-2.915229 z M 24.401168,38.5 c 0.345501,-1.1 -0.03625,-0.582734 -0.848345,1.149481 -0.81209,1.732215 -1.71095,6.232215 -1.997467,10 L 21.034416,56.5 l 1.369285,-8 c 0.753106,-4.4 1.651967,-8.9 1.997467,-10 z m 21.927949,4.830451 C 49.387428,37.41633 56.333844,33.304093 64,32.869395 66.244488,32.742124 66.277955,32.684381 64.327456,32.304417 60.681707,31.594213 54.172573,33.909582 50.32989,37.283502 45.835808,41.229359 43.010865,47.213585 43.146718,52.5 c 0.09999,3.890998 0.122966,3.862694 0.843072,-1.038665 0.407153,-2.771265 1.45985,-6.430163 2.339327,-8.130884 z M 10.683114,52.8125 c -0.319226,-0.797733 -0.556183,-0.560776 -0.604167,0.604167 -0.04342,1.054166 0.192928,1.644791 0.52522,1.3125 0.332291,-0.332292 0.367818,-1.194792 0.07895,-1.916667 z m 59,0 c -0.319226,-0.797733 -0.556183,-0.560776 -0.604167,0.604167 -0.04342,1.054166 0.192928,1.644791 0.52522,1.3125 0.332291,-0.332292 0.367818,-1.194792 0.07895,-1.916667 z m -30,-1 c -0.319226,-0.797733 -0.556183,-0.560776 -0.604167,0.604167 -0.04342,1.054166 0.192928,1.644791 0.52522,1.3125 0.332291,-0.332292 0.367818,-1.194792 0.07895,-1.916667 z m 14.904015,-7.908776 c 0.962611,-1.063673 3.136802,-2.336565 4.831536,-2.828649 2.26173,-0.656717 2.518728,-0.918688 0.966194,-0.984887 -4.375237,-0.186557 -10.516829,7.329863 -10.317963,12.627693 0.03679,0.980166 0.675101,-0.166904 1.418463,-2.549043 0.743362,-2.38214 2.139159,-5.201441 3.10177,-6.265114 z m 7.757948,8.553148 c -0.325685,-0.848721 -0.806623,-1.32866 -1.068751,-1.066531 -0.262128,0.262128 -0.179978,0.956536 0.182555,1.543128 0.98605,1.595461 1.56238,1.28551 0.886196,-0.476597 z m -1.945133,-3.691559 c 1.858582,-1.241279 4.8511,-0.848096 6.771315,0.889675 C 68.202236,50.588008 69,50.821475 69,50.190171 69,48.692158 65.693171,47 62.765741,47 c -2.746385,0 -4.799834,1.730634 -4.686794,3.95 0.06855,1.345889 0.154139,1.352474 0.649944,0.05 0.314049,-0.825 1.066022,-1.830609 1.671053,-2.234687 z M 31.9854,39.504435 c 0.633504,-1.647561 2.165335,-4.347561 3.404068,-6 3.623111,-4.833139 4.040277,-6.302589 0.71099,-2.504435 -3.498168,3.990819 -7.153256,12.767929 -6.990892,16.787513 0.08482,2.099781 0.291903,1.808953 0.916787,-1.287513 0.443972,-2.2 1.325543,-5.348004 1.959047,-6.995565 z M 43.243431,41.5 C 46.59281,35.132425 52.538274,31.151773 60.429111,29.993715 65.336819,29.27346 65.37128,29.246204 61.5,29.146718 c -4.601424,-0.11825 -10.807534,2.459562 -14.665243,6.091455 -3.334383,3.1392 -6.867618,9.947042 -6.732396,12.971989 0.08329,1.863256 0.238421,1.730958 0.832708,-0.710162 0.40169,-1.65 1.440453,-4.35 2.308362,-6 z M 40.765004,32.916476 C 43.196188,30.212414 44.726399,28 44.165473,28 41.48747,28 32.919736,41.687594 33.061703,45.739102 c 0.03394,0.968494 0.786487,-0.414188 1.672335,-3.072626 0.8874,-2.663099 3.59552,-7.041198 6.030966,-9.75 z M 28.572851,38.75 C 29.348876,36.6875 29.768489,35 29.505323,35 c -0.772588,0 -3.512571,7.094805 -3.426376,8.872124 0.06539,1.348314 0.165159,1.370274 0.580948,0.127876 0.276101,-0.825 1.136931,-3.1875 1.912956,-5.25 z"
                id="path3091"
                inkscape:connector-curvature="0"/>
        <path
                style="fill:#c9d2f5;fill-opacity:1"
                d="M 54,73.908339 C 52.479613,73.260852 48.697381,73.100064 44.347637,73.498003 38.727824,74.012135 36.518868,73.802557 34.038506,72.519912 31.947929,71.438833 27.818602,70.803038 21.812449,70.637459 12.763299,70.387989 12.735677,70.379266 9.3715812,66.708402 5.5331418,62.51994 4.8534742,57.117817 7.5169269,51.967267 9.0409436,49.020144 13.562308,46 16.45034,46 17.345849,46 18,45.134786 18,43.95034 18,39.221079 23.670318,33 27.980892,33 c 0.594116,0 2.450838,-1.561058 4.126049,-3.469018 3.467167,-3.948885 8.224386,-5.308335 12.887436,-3.682787 2.530633,0.882184 3.63983,0.710163 6.570537,-1.018997 C 56.246096,22.067234 62.1228,22.785407 66.11158,26.606901 67.700211,28.128906 69,29.88655 69,30.512777 c 0,0.626227 1.113676,2.184839 2.474834,3.463581 1.361159,1.278743 3.225155,4.289673 4.142214,6.690955 1.243377,3.255739 2.330518,4.509553 4.275165,4.930612 8.456251,1.830961 12.097585,5.791996 12.104049,13.16676 0.003,3.459165 -0.638762,4.965774 -3.397864,7.976476 -3.046065,3.323832 -3.960621,3.730429 -8.75,3.890113 -2.941619,0.09808 -7.281166,0.883352 -9.643437,1.745056 C 64.370519,74.504603 57.02971,75.1986 54,73.908339 z M 36.892228,66.25 C 35.137153,62.843967 33.58779,57.850299 33.091477,54 32.422463,48.809929 32.228055,48.319914 32.126805,51.568499 31.976261,56.398661 34.18122,64.221781 36.969439,68.75 c 3.194494,5.188033 3.150513,3.763966 -0.07721,-2.5 z M 63.25,71.337719 c -0.6875,-0.277412 -1.8125,-0.277412 -2.5,0 -0.6875,0.277413 -0.125,0.504386 1.25,0.504386 1.375,0 1.9375,-0.226973 1.25,-0.504386 z M 42.0484,68.067972 c -1.148283,-1.612615 -2.736312,-4.425115 -3.528952,-6.25 -0.79264,-1.824885 -1.458778,-2.733125 -1.480306,-2.018312 -0.04922,1.63447 2.709264,7.138327 4.736435,9.45034 2.410553,2.749266 2.572509,2.047582 0.272823,-1.182028 z m 4.333426,-0.624596 c -1.84488,-1.956142 -4.004171,-5.668642 -4.798425,-8.25 C 40.789147,56.612019 40.10796,55.301953 40.069652,56.282119 39.920387,60.101232 46.501553,71 48.956971,71 c 0.428551,0 -0.730264,-1.600481 -2.575145,-3.556624 z m 9.865213,2.224504 C 52.147786,68.180935 47.12122,63.484807 45.400012,59.533918 44.673062,57.865263 44.06067,57.219983 44.039142,58.099962 43.933565,62.415527 53.367456,71.065786 58,70.901152 58.825,70.871832 58.03617,70.31686 56.247039,69.66788 z m 11.482128,0.727953 c -0.332292,-0.332291 -1.194792,-0.367818 -1.916667,-0.07895 -0.797733,0.319226 -0.560776,0.556183 0.604167,0.604167 1.054166,0.04342 1.644791,-0.192928 1.3125,-0.52522 z M 32.039733,64.898896 c -1.097695,-2.419393 -2.005692,-3.851663 -2.017771,-3.182823 -0.02641,1.462447 3.193482,8.401816 3.675033,7.920266 0.1862,-0.186201 -0.559567,-2.31805 -1.657262,-4.737443 z m 42.981814,1.314851 c 4.417966,-4.417966 6.626924,-10.961462 5.282669,-15.648607 -0.763407,-2.661846 -0.875645,-2.34447 -0.875645,2.476078 0,6.470257 -2.684932,11.645085 -7.712854,14.86544 -1.768644,1.132807 -2.600276,2.06723 -1.84807,2.076495 0.752206,0.0093 3.071461,-1.686967 5.1539,-3.769406 z M 28.311592,65.25 C 27.439096,63.1875 26.369644,57.9 25.935032,53.5 l -0.790205,-8 0.27629,8 c 0.240416,6.961286 2.431191,15.5 3.97683,15.5 0.275,0 -0.21386,-1.6875 -1.086355,-3.75 z M 16.444444,63.555556 c -0.376486,-2.006847 -0.884521,-3.448813 -1.128965,-3.204368 -0.244445,0.244444 -0.13641,2.08641 0.240077,4.093256 0.376486,2.006847 0.884521,3.448813 1.128965,3.204368 0.244445,-0.244444 0.13641,-2.08641 -0.240077,-4.093256 z m 4.013,1.694444 C 20.03979,63.7375 19.383919,59.125 18.999954,55 l -0.698119,-7.5 -0.150918,5.80718 C 18.009704,58.740971 19.633161,68 20.727123,68 c 0.269331,0 0.147976,-1.2375 -0.269679,-2.75 z M 23.499381,62 c -0.73111,-3.025 -1.365051,-4.6 -1.408759,-3.5 -0.08927,2.246672 1.867678,9.876313 2.396609,9.343771 C 24.675024,67.654697 24.230491,65.025 23.499381,62 z m 45.429534,4.248446 C 75.780866,62.754552 78.646602,54.876637 75.66311,47.736133 74.146637,44.106703 68.98664,39.989414 66,40.0257 c -0.825,0.01002 0.334138,0.851256 2.575861,1.869406 9.522585,4.324984 9.739403,18.248728 0.362475,23.277629 -6.15895,3.303081 -12.653365,1.998271 -17.875517,-3.591417 C 47.411673,57.673203 46.965469,48.772607 50.181433,44 54.505081,37.583551 63.795775,35.097518 70.5,38.563094 c 2.890883,1.494367 2.93505,1.48505 1.214286,-0.256161 C 70.362534,36.939119 68.375447,36.5 63.537616,36.5 c -7.169256,0 -10.301912,1.654338 -14.376116,7.591948 -3.008843,4.384986 -2.714173,12.918782 0.60714,17.583136 4.255843,5.976782 12.533316,7.95253 19.160275,4.573362 z m 13.15325,-3.621817 C 83.199179,60.166799 83.909682,56.480436 83.841214,53.5 l -0.114862,-5 -0.698716,6.115864 c -0.416678,3.647187 -1.649494,7.654255 -3.054159,9.927051 -1.295494,2.096153 -1.772644,3.450997 -1.060333,3.010765 0.71231,-0.440232 2.13837,-2.657405 3.169021,-4.927051 z M 87.521088,55.691142 87.934004,50.5 86.968496,55.79677 c -0.531029,2.913223 -1.64118,6.603376 -2.467002,8.20034 -0.825821,1.596964 -1.481606,3.263417 -1.457298,3.70323 0.02431,0.439813 0.948646,-0.914326 2.054086,-3.009198 1.105439,-2.094872 2.195702,-6.144872 2.422806,-9 z M 12.089327,60.936905 C 11.576548,58.322378 11.179738,57.52683 11.12322,59 c -0.103785,2.70526 0.90968,7.300433 1.483545,6.726568 0.194017,-0.194016 -0.03883,-2.349365 -0.517438,-4.789663 z m 47.529975,2.028672 C 56.148096,61.926253 52,58.220631 52,56.159019 c 0,-0.820794 -0.300678,-1.191674 -0.668173,-0.824179 -1.086429,1.086428 1.885362,5.710963 4.629248,7.203779 C 57.357484,63.298337 59.4,63.899263 60.5,63.87401 61.882273,63.84228 61.610258,63.561694 59.619302,62.965577 z M 70.076923,61.076923 C 72.366888,58.786958 73,57.256583 73,54.011182 73,48.77387 71.744295,46.43625 67.848874,44.42185 63.780819,42.318177 58.707431,43.285189 56.043331,46.672043 49.705435,54.729372 59.781973,65.129945 67.75,58.755166 68.4375,58.205136 69,57.32755 69,56.804975 c 0,-0.522574 -1.185686,-0.01747 -2.634859,1.122445 -3.460164,2.721766 -5.911964,2.616666 -8.910596,-0.381965 -4.771766,-4.771767 -2.218286,-12.084099 4.600777,-13.17512 8.410849,-1.3457 13.544693,9.756922 7.36779,15.933826 -1.417289,1.417289 -3.554789,2.76737 -4.75,3.000182 -2.090737,0.407247 -2.084907,0.428455 0.153811,0.559475 1.370931,0.08023 3.527839,-1.064734 5.25,-2.786895 z M 29.689326,55.25 c -0.251528,-0.9625 -0.457323,-0.175 -0.457323,1.75 0,1.925 0.205795,2.7125 0.457323,1.75 0.251527,-0.9625 0.251527,-2.5375 0,-3.5 z m -14.973072,-4 c -0.229124,-1.5125 -0.41659,-0.275 -0.41659,2.75 0,3.025 0.187466,4.2625 0.41659,2.75 0.229125,-1.5125 0.229125,-3.9875 0,-5.5 z M 39.429735,41 C 42.84882,34.330181 49.082642,29.036537 55.993526,26.934341 58.025911,26.316117 58.121709,26.157423 56.5,26.095337 53.001807,25.961411 44.256255,31.764696 41.214817,36.238125 c -3.952553,5.813521 -5.24127,10.050051 -5.068166,16.661098 l 0.14665,5.600777 0.671132,-7 c 0.369122,-3.85 1.478508,-8.575 2.465302,-10.5 z m 26.37436,12.877747 c 0.201842,-1.740509 -0.266037,-2.841033 -1.391443,-3.272892 -1.417526,-0.543956 -1.490036,-0.403023 -0.44222,0.859518 0.689326,0.830586 0.992098,2.190888 0.672828,3.022892 -0.791114,2.061612 -4.311641,1.911464 -5.563161,-0.237265 -0.560605,-0.9625 -1.032966,-1.2775 -1.04969,-0.7 -0.0556,1.920009 2.423011,3.539754 4.962567,3.242976 1.866864,-0.218165 2.584674,-0.96256 2.811119,-2.915229 z M 24.401168,38.5 c 0.345501,-1.1 -0.03625,-0.582734 -0.848345,1.149481 -0.81209,1.732215 -1.71095,6.232215 -1.997467,10 L 21.034416,56.5 l 1.369285,-8 c 0.753106,-4.4 1.651967,-8.9 1.997467,-10 z m 21.927949,4.830451 C 49.387428,37.41633 56.333844,33.304093 64,32.869395 66.244488,32.742124 66.277955,32.684381 64.327456,32.304417 60.681707,31.594213 54.172573,33.909582 50.32989,37.283502 45.835808,41.229359 43.010865,47.213585 43.146718,52.5 c 0.09999,3.890998 0.122966,3.862694 0.843072,-1.038665 0.407153,-2.771265 1.45985,-6.430163 2.339327,-8.130884 z M 10.683114,52.8125 c -0.319226,-0.797733 -0.556183,-0.560776 -0.604167,0.604167 -0.04342,1.054166 0.192928,1.644791 0.52522,1.3125 0.332291,-0.332292 0.367818,-1.194792 0.07895,-1.916667 z m 59,0 c -0.319226,-0.797733 -0.556183,-0.560776 -0.604167,0.604167 -0.04342,1.054166 0.192928,1.644791 0.52522,1.3125 0.332291,-0.332292 0.367818,-1.194792 0.07895,-1.916667 z m -30,-1 c -0.319226,-0.797733 -0.556183,-0.560776 -0.604167,0.604167 -0.04342,1.054166 0.192928,1.644791 0.52522,1.3125 0.332291,-0.332292 0.367818,-1.194792 0.07895,-1.916667 z m 14.904015,-7.908776 c 0.962611,-1.063673 3.136802,-2.336565 4.831536,-2.828649 2.26173,-0.656717 2.518728,-0.918688 0.966194,-0.984887 -4.375237,-0.186557 -10.516829,7.329863 -10.317963,12.627693 0.03679,0.980166 0.675101,-0.166904 1.418463,-2.549043 0.743362,-2.38214 2.139159,-5.201441 3.10177,-6.265114 z m 7.757948,8.553148 c -0.325685,-0.848721 -0.806623,-1.32866 -1.068751,-1.066531 -0.262128,0.262128 -0.179978,0.956536 0.182555,1.543128 0.98605,1.595461 1.56238,1.28551 0.886196,-0.476597 z m -1.945133,-3.691559 c 1.858582,-1.241279 4.8511,-0.848096 6.771315,0.889675 C 68.202236,50.588008 69,50.821475 69,50.190171 69,48.692158 65.693171,47 62.765741,47 c -2.746385,0 -4.799834,1.730634 -4.686794,3.95 0.06855,1.345889 0.154139,1.352474 0.649944,0.05 0.314049,-0.825 1.066022,-1.830609 1.671053,-2.234687 z M 31.9854,39.504435 c 0.633504,-1.647561 2.165335,-4.347561 3.404068,-6 3.623111,-4.833139 4.040277,-6.302589 0.71099,-2.504435 -3.498168,3.990819 -7.153256,12.767929 -6.990892,16.787513 0.08482,2.099781 0.291903,1.808953 0.916787,-1.287513 0.443972,-2.2 1.325543,-5.348004 1.959047,-6.995565 z M 43.243431,41.5 C 46.59281,35.132425 52.538274,31.151773 60.429111,29.993715 65.336819,29.27346 65.37128,29.246204 61.5,29.146718 c -4.601424,-0.11825 -10.807534,2.459562 -14.665243,6.091455 -3.334383,3.1392 -6.867618,9.947042 -6.732396,12.971989 0.08329,1.863256 0.238421,1.730958 0.832708,-0.710162 0.40169,-1.65 1.440453,-4.35 2.308362,-6 z M 40.765004,32.916476 C 43.196188,30.212414 44.726399,28 44.165473,28 41.48747,28 32.919736,41.687594 33.061703,45.739102 c 0.03394,0.968494 0.786487,-0.414188 1.672335,-3.072626 0.8874,-2.663099 3.59552,-7.041198 6.030966,-9.75 z M 28.572851,38.75 C 29.348876,36.6875 29.768489,35 29.505323,35 c -0.772588,0 -3.512571,7.094805 -3.426376,8.872124 0.06539,1.348314 0.165159,1.370274 0.580948,0.127876 0.276101,-0.825 1.136931,-3.1875 1.912956,-5.25 z"
                id="path3089"
                inkscape:connector-curvature="0"/>
        <path
                style="fill:#33a7ff;fill-opacity:1"
                d="M 54,73.908339 C 52.479613,73.260852 48.697381,73.100064 44.347637,73.498003 38.727824,74.012135 36.518868,73.802557 34.038506,72.519912 31.947929,71.438833 27.818602,70.803038 21.812449,70.637459 12.763299,70.387989 12.735677,70.379266 9.3715812,66.708402 5.5331418,62.51994 4.8534742,57.117817 7.5169269,51.967267 9.0409436,49.020144 13.562308,46 16.45034,46 17.345849,46 18,45.134786 18,43.95034 18,39.221079 23.670318,33 27.980892,33 c 0.594116,0 2.450838,-1.561058 4.126049,-3.469018 3.467167,-3.948885 8.224386,-5.308335 12.887436,-3.682787 2.530633,0.882184 3.63983,0.710163 6.570537,-1.018997 C 56.246096,22.067234 62.1228,22.785407 66.11158,26.606901 67.700211,28.128906 69,29.88655 69,30.512777 c 0,0.626227 1.113676,2.184839 2.474834,3.463581 1.361159,1.278743 3.225155,4.289673 4.142214,6.690955 1.243377,3.255739 2.330518,4.509553 4.275165,4.930612 8.456251,1.830961 12.097585,5.791996 12.104049,13.16676 0.003,3.459165 -0.638762,4.965774 -3.397864,7.976476 -3.046065,3.323832 -3.960621,3.730429 -8.75,3.890113 -2.941619,0.09808 -7.281166,0.883352 -9.643437,1.745056 C 64.370519,74.504603 57.02971,75.1986 54,73.908339 z M 39.047046,69.06607 c -7.714892,-10.834566 -6.472948,-27.044647 2.831198,-36.953318 3.959872,-4.21716 3.196485,-5.51659 -0.922531,-1.570323 -6.868164,6.580119 -10.425005,19.489157 -8.03115,29.147889 C 34.205177,64.857342 38.358423,72 40.082283,72 c 0.579648,0 0.113791,-1.320268 -1.035237,-2.93393 z m 28.171899,1.889924 C 76.197159,68.462499 83.248266,57.022461 80.393011,49.581787 79.251755,46.607722 78.485292,47.996273 78.835769,52.402942 79.581756,61.782508 72.9308,69.132397 63.152229,69.734626 52.485666,70.391544 45.045879,63.114821 45.020188,52 44.997131,42.024264 51.790927,34.932077 62.083159,34.187604 68.446045,33.727354 69.278427,32 63.137327,32 c -5.493835,0 -13.774304,4.494315 -16.853631,9.147493 -6.597403,9.969348 -2.618804,24.069929 8.174934,28.972843 4.634851,2.105321 7.51059,2.293649 12.760315,0.835658 z M 42.06199,66.926877 C 36.604705,59.393314 35.978266,48.744069 40.480269,40.038155 43.846246,33.529075 53.127052,27.14471 59.5,26.954282 c 2.79818,-0.08361 2.855907,-0.159398 0.858089,-1.126546 -1.691818,-0.819013 -3.431097,-0.458351 -8.276919,1.716324 -10.343728,4.64199 -16.019927,13.144943 -16.059208,24.056717 -0.01208,3.355427 0.490184,7.630427 1.116141,9.5 C 38.441725,64.994361 42.639365,71 44.057164,71 44.582623,71 43.684795,69.167095 42.06199,66.926877 z m 4.995819,0.254553 C 38.66975,58.363748 39.140033,44.83566 48.131614,36.292532 51.83561,32.773272 58.532024,30 63.325727,30 65.395784,30 66.070041,29.670041 65.389876,28.989876 63.941282,27.541282 54.547219,29.498681 50.27442,32.139416 40.478045,38.193909 36.522046,52.185319 41.699892,62.465445 43.590691,66.219448 47.977917,71 49.532255,71 c 0.63694,0 -0.476561,-1.718357 -2.474446,-3.81857 z M 32.723892,65.25 C 31.134341,61.760352 30.552252,58.509971 30.530122,53 30.495061,44.270315 32.521355,38.090323 37.600374,31.436446 41.494052,26.33545 40.549244,25.37844 36.429056,30.25 30.109181,37.722392 26.981648,49.493708 28.964899,58.343372 30.377813,64.648079 32.64034,70 33.892743,70 c 0.547138,0 0.02116,-2.1375 -1.168851,-4.75 z M 17.078472,64.343771 C 16.491447,62.229697 16.008644,57.9125 16.005577,54.75 16.00204,51.103074 15.581456,49 14.855662,49 c -1.405381,0 -0.589926,13.028906 1.088325,17.388688 1.572049,4.08389 2.414597,2.565192 1.134485,-2.044917 z M 30,68.5651 c 0,-0.239196 -0.482343,-1.701696 -1.071872,-3.25 -3.30704,-8.685406 -2.99427,-20.418942 0.736604,-27.633657 1.182184,-2.286091 1.217986,-2.812697 0.168365,-2.476454 -2.160611,0.692145 -4.742137,9.781853 -4.789327,16.86351 C 24.998131,58.917446 27.377099,69 29.038741,69 29.567433,69 30,68.804295 30,68.5651 z M 21.412999,65.75 C 19.824646,60.798607 19.043526,56.260048 18.96047,51.5 c -0.07166,-4.106929 -0.252474,-4.588131 -1.012316,-2.694087 -0.88746,2.212157 0.190656,13.786286 1.634707,17.549424 0.969774,2.527189 2.656093,1.969421 1.830138,-0.605337 z m 2.989133,-2.408931 c -1.824765,-6.063233 -1.786293,-15.756856 0.08704,-21.932138 1.822542,-6.007843 1.819398,-5.909914 0.145139,-4.520402 -3.55,2.946241 -4.487501,19.530996 -1.574947,27.861471 1.762845,5.04208 2.919107,3.828844 1.342768,-1.408931 z M 69.75914,66.005402 C 79.778787,59.896349 79.185914,45.790436 68.693318,40.646867 63.687779,38.193105 58.927831,39.12279 54.169363,43.483601 50.880499,46.49762 50.5,47.365166 50.5,51.84983 c 0,6.233882 2.618371,10.097597 8.174213,12.062015 3.623414,1.281155 4.355557,1.234872 7.90941,-0.5 5.356982,-2.6151 8.038613,-7.996421 6.423501,-12.890259 C 70.495099,42.910075 62.283746,40.562408 56.923077,45.923077 51.286952,51.559202 54.465996,61 62,61 c 3.722696,0 8,-3.866704 8,-7.232039 0,-6.495139 -8.182216,-9.471884 -11.618798,-4.226997 -1.350003,2.060366 -1.447575,3.017948 -0.515867,5.062823 0.939776,2.062584 1.739608,2.464888 4.39185,2.209036 C 65.12413,56.536259 65.5,56.152274 65.5,53.5 c 0,-2.326439 -0.445966,-3 -1.986305,-3 -1.096664,0 -2.137252,0.783803 -2.323324,1.75 -0.185361,0.9625 0.172534,1.75 0.795322,1.75 0.622787,0 0.854226,-0.45 0.514307,-1 -0.339919,-0.55 -0.168034,-1 0.381966,-1 1.783489,0 2.134745,1.741242 0.607024,3.009138 C 62.306453,55.990556 61.691281,55.988675 60.5,55 c -1.928558,-1.600561 -1.904185,-3.452958 0.07143,-5.428571 1.994594,-1.994595 3.862548,-1.994595 5.857142,0 C 69.980962,53.123819 67.273014,59 62.083559,59 56.177824,59 53.314875,50.5927 57.944117,46.844168 64.920043,41.195405 74.449396,48.672421 70.972426,57.066569 68.289852,63.542877 60.594767,64.794767 55.4,59.6 49.815407,54.015407 51.022364,46.108276 58.011044,42.494289 65.96565,38.380802 75.054746,43.883516 75.179019,52.888112 75.385158,67.824585 54.799921,71.516817 49.448106,57.503289 46.231301,49.080204 50.730251,40.496084 59.615553,38.103521 63.363864,37.094205 65.173613,37.303746 71.5,39.479554 73.245831,40.07999 73.19998,39.902599 71.139216,38.083703 66.144583,33.675281 54.383291,36.239024 49.533017,42.793452 46.588303,46.772797 46.265294,56.50221 48.93657,60.75914 51.809515,65.33745 56.604556,67.992524 62,67.992524 c 2.730192,0 5.78179,-0.781517 7.75914,-1.987122 z m 11.388583,-1.212859 c 1.627538,-2.285667 2.399062,-5.01587 2.684589,-9.5 C 84.058958,51.733148 83.82327,49 83.289689,49 82.770872,49 82.539544,50.316073 82.775627,51.924607 83.2845,55.391778 81.484928,61.413079 78.7931,65.25 77.731991,66.7625 77.313812,68 77.863812,68 c 0.55,0 2.02776,-1.443356 3.283911,-3.207457 z M 85.554495,64.25 C 87.729151,59.674675 88.758808,51 87.127229,51 86.466154,51 86,52.773489 86,55.288558 86,57.647265 85.1,61.342414 84,63.5 81.703898,68.00367 81.704807,68 82.886059,68 c 0.487332,0 1.688128,-1.6875 2.668436,-3.75 z m -72.007326,1.012324 c -0.366745,-0.955721 -0.929962,-4.555721 -1.251594,-8 C 11.973944,53.818046 11.263906,51 10.717714,51 10.097907,51 9.9768056,53.145559 10.395526,56.708219 11.294218,64.354679 12.019015,67 13.215397,67 c 0.549219,0 0.698517,-0.781954 0.331772,-1.737676 z M 8.683114,58.8125 c -0.3192263,-0.797733 -0.5561827,-0.560776 -0.6041666,0.604167 -0.043421,1.054166 0.1929276,1.644791 0.5252193,1.3125 0.3322916,-0.332292 0.3678179,-1.194792 0.078947,-1.916667 z"
                id="path3087"
                inkscape:connector-curvature="0"/>
        <path
                style="fill:#286ff9;fill-opacity:0.25098039"
                d="M 54,73.908339 C 52.479613,73.260852 48.697381,73.100064 44.347637,73.498003 38.727824,74.012135 36.518868,73.802557 34.038506,72.519912 31.947929,71.438833 27.818602,70.803038 21.812449,70.637459 12.763299,70.387989 12.735677,70.379266 9.3715812,66.708402 5.5331418,62.51994 4.8534742,57.117817 7.5169269,51.967267 9.0409436,49.020144 13.562308,46 16.45034,46 17.345849,46 18,45.134786 18,43.95034 18,39.221079 23.670318,33 27.980892,33 c 0.594116,0 2.450838,-1.561058 4.126049,-3.469018 3.467167,-3.948885 8.224386,-5.308335 12.887436,-3.682787 2.530633,0.882184 3.63983,0.710163 6.570537,-1.018997 C 56.246096,22.067234 62.1228,22.785407 66.11158,26.606901 67.700211,28.128906 69,29.88655 69,30.512777 c 0,0.626227 1.113676,2.184839 2.474834,3.463581 1.361159,1.278743 3.225155,4.289673 4.142214,6.690955 1.243377,3.255739 2.330518,4.509553 4.275165,4.930612 8.456251,1.830961 12.097585,5.791996 12.104049,13.16676 0.003,3.459165 -0.638762,4.965774 -3.397864,7.976476 -3.046065,3.323832 -3.960621,3.730429 -8.75,3.890113 -2.941619,0.09808 -7.281166,0.883352 -9.643437,1.745056 C 64.370519,74.504603 57.02971,75.1986 54,73.908339 z m -3,-2.945694 c 17.991985,0.899559 22.151064,-0.211594 26.738392,-7.143516 2.970012,-4.487991 4.222942,-12.955866 2.265896,-15.313962 -2.10238,-2.533213 -2.515984,-1.740572 -2.214023,4.243011 0.222269,4.404434 -0.185534,6.515289 -1.74086,9.010962 C 73.601884,65.686429 68.425297,69.029026 65,68.8939 c -2.215492,-0.0874 -2.146111,-0.183137 0.60966,-0.84126 7.229757,-1.726581 11.374022,-7.087564 11.383751,-14.725915 0.0053,-4.127815 -0.522704,-5.802304 -2.612527,-8.285917 -5.032181,-5.980407 -10.669173,-7.421434 -17.097815,-4.370843 -5.107304,2.423574 -7.489462,6.726593 -6.982393,12.612668 0.934659,10.849559 12.88462,15.352273 20.274163,7.639252 C 72.925912,58.467894 73.5,56.982299 73.5,53.352308 73.5,49.514778 73.009135,48.397354 70.234223,45.917971 64.707012,40.979408 56.650681,42.5191 54.107718,49 c -0.732137,1.865897 -0.997023,2.036617 -1.044332,0.673077 -0.03486,-1.004808 1.251999,-3.142308 2.859691,-4.75 5.487792,-5.487793 15.609658,-2.898962 18.093699,4.627755 3.568012,10.811181 -7.878973,20.026776 -17.88825,14.401248 -9.757799,-5.48419 -9.256191,-19.102196 0.891407,-24.200526 4.557956,-2.289996 8.649381,-2.212649 13.244876,0.250389 2.054355,1.101068 3.7283,1.663568 3.719878,1.25 -0.03734,-1.833442 -1.970982,-3.486511 -5.584655,-4.77431 -2.980215,-1.062054 -3.340494,-1.400199 -1.527587,-1.43374 C 71.176837,34.964257 67.255186,32 62.845437,32 51.843409,32 43,40.865523 43,51.895062 c 0,6.492071 1.309582,9.755539 5.809538,14.477326 2.644218,2.774568 3.048596,3.542081 1.426379,2.70728 C 43.234965,65.476941 39.70349,51.390136 43.802593,43.417594 47.757863,35.724801 55.0967,31 63.090326,31 66.669889,31 67.072594,30.792397 66,29.5 65.315311,28.675 63.572711,27.968372 62.127555,27.929715 59.801178,27.867486 59.729246,27.769086 61.5,27.071251 63.248994,26.381991 63.093353,26.192857 60.259866,25.564247 53.732068,24.116055 42.973031,31.360619 38.078502,40.5 36.801893,42.883767 36.205526,43.489854 36.602559,42 37.428653,38.900113 42.773271,31.300982 44.627945,30.589276 46.428981,29.898154 46.397489,28 44.584987,28 c -2.24898,0 -9.474549,8.899352 -10.78978,13.289203 -0.659234,2.200327 -1.356382,3.527273 -1.549216,2.94877 C 31.673992,42.521976 34.453825,36.832729 38.347761,31.75 40.430584,29.031306 41.428158,27 40.680486,27 38.685003,27 34.093431,32.248729 31.361293,37.652979 30.013557,40.31884 29.199672,41.375 29.55266,40 c 0.352988,-1.375 1.729429,-4.1875 3.058757,-6.25 1.329328,-2.0625 2.220191,-3.75 1.979695,-3.75 -1.360397,0 -7.027678,6.924631 -8.141452,9.947725 -0.719805,1.953751 -1.340444,3.01907 -1.379198,2.367375 -0.03875,-0.651696 0.38311,-2.377886 0.937477,-3.83598 0.770979,-2.02783 0.712206,-2.554733 -0.25,-2.241258 -2.331094,0.759443 -4.086351,6.17752 -4.776886,14.745153 L 20.2946,59.5 20.1473,52.627555 C 20.018989,46.641056 19.806631,45.915593 18.5,47 c -0.88381,0.733497 -1.564537,3.14586 -1.657104,5.872445 L 16.685793,57.5 16.040954,52.5 C 15.273777,46.551399 14.200123,48.165161 13.712367,56 l -0.342402,5.5 -0.184983,-5.833333 C 12.961981,48.634431 10.826041,48.251424 9.9001937,55.077654 9.543643,57.706487 9.2109707,58.486108 9.0799085,57 8.877788,54.708166 8.7935382,54.666533 8.0681004,56.5 c -0.8158979,2.062095 -0.7734276,2.600131 0.4736135,6 0.68749,1.874337 0.7815018,1.842921 1.4962541,-0.5 0.752849,-2.467801 0.763956,-2.470175 0.862352,-0.184259 C 11.021091,64.621459 12.72005,68 14.010184,68 c 0.516899,0 0.711433,-1.4625 0.432298,-3.25 l -0.507517,-3.25 1.282517,3.424891 C 16.421325,68.139685 19,70.35673 19,68.176953 c 0,-0.544343 0.90979,-0.751798 2.021755,-0.461013 1.825584,0.477401 1.922615,0.26794 1,-2.158719 -0.561965,-1.478081 -0.987172,-3.445625 -0.944903,-4.372321 0.04227,-0.926695 0.618181,0.11152 1.279807,2.307145 0.666112,2.210515 1.926357,4.13136 2.82395,4.304221 1.454537,0.280118 1.481656,-0.07848 0.264086,-3.492046 C 24.698395,62.211899 24.117338,59.15 24.153458,57.5 c 0.05102,-2.330756 0.261335,-1.996134 0.942759,1.5 1.225509,6.287629 2.905395,10 4.525103,10 1.705673,0 1.706477,0.02878 -0.12132,-4.345757 -0.825,-1.974503 -1.485309,-4.391959 -1.467354,-5.372124 0.01796,-0.980166 0.879387,0.670716 1.914292,3.668626 C 31.634526,67.839341 34.058758,71 36.120733,71 c 0.406161,0 -0.433418,-2.096744 -1.865731,-4.65943 -2.110021,-3.775239 -2.652213,-6.194729 -2.85719,-12.75 L 31.144827,45.5 l 0.780044,8.093587 c 0.575144,5.967593 1.527806,9.467472 3.626751,13.323927 2.794089,5.133662 2.912342,5.216845 6.397543,4.500242 C 43.902124,71.016202 47.975,70.811402 51,70.962645 z m -12.446569,-4.28126 c -1.391982,-2.375238 -2.770481,-5.862738 -3.063331,-7.75 -0.48721,-3.139809 -0.414021,-3.076551 0.86132,0.74444 0.766576,2.296703 2.387808,5.784203 3.602737,7.75 C 41.169086,69.391621 41.920386,71 41.623713,71 c -0.296673,0 -1.6783,-1.943377 -3.070282,-4.318615 z m 3.939199,-0.513158 c -6.737684,-10.181328 -5.650644,-22.159026 2.813948,-31.005856 3.561484,-3.722311 9.670625,-7.207662 12.403584,-7.076418 1.20459,0.05785 0.970262,0.335256 -0.716636,0.848388 -11.482471,3.492809 -18.88569,14.132474 -17.716434,25.461479 0.533472,5.168842 1.87696,8.522537 5.349677,13.35418 0.889446,1.2375 1.343673,2.25 1.009392,2.25 -0.334281,0 -1.74887,-1.724298 -3.143531,-3.831773 z m 11.684598,1.148855 C 50.699283,65.603239 45.972024,59.62062 46.039142,57.017865 46.06067,56.183039 46.678296,56.85 47.411644,58.5 c 1.79259,4.033247 5.584575,7.380199 10.243545,9.041351 2.187428,0.779925 2.982671,1.379969 1.844811,1.391986 -1.1,0.01162 -3.495247,-0.715697 -5.322772,-1.616255 z M 17.640658,63.789663 C 17.303316,62.530348 17.066368,60.6 17.114106,59.5 c 0.04774,-1.1 0.498673,-0.24458 1.002078,1.900934 0.974939,4.155196 0.558307,6.248081 -0.475526,2.388729 z m 38.436067,-4.378557 c -1.84935,-1.556126 -3.022399,-3.451007 -2.940543,-4.75 0.134814,-2.139397 0.140509,-2.138704 0.56694,0.06897 C 54.308973,57.866622 58.685471,61 62.460545,61 69.336227,61 72.660514,52.237921 67.365141,48.07258 65.915969,46.932661 64.176655,46 63.5,46 61.354875,46 57,50.068512 57,52.07258 57,54.125216 60.299739,58 62.047749,58 c 0.576262,0 2.213938,-1.2375 3.63928,-2.75 2.145776,-2.276988 2.391627,-2.366932 1.429332,-0.522918 -1.880907,3.604321 -4.827322,4.692323 -7.667542,2.83134 -7.101407,-4.653021 -1.140398,-14.744378 6.773271,-11.466429 5.447795,2.25655 6.518881,8.894309 2.141546,13.271643 -3.49483,3.494831 -8.168497,3.512887 -12.286911,0.04747 z M 27.286014,52.5 c 0.0075,-2.75 0.201713,-3.756313 0.431567,-2.23625 0.229855,1.520062 0.223712,3.770062 -0.01365,5 C 27.466569,56.493687 27.278507,55.25 27.286014,52.5 z m 17.908935,0 c 0.02038,-1.65 0.244498,-2.203936 0.498042,-1.230968 0.253543,0.972967 0.236869,2.322967 -0.03705,3 C 45.382014,54.946064 45.174569,54.15 45.194949,52.5 z m 15.166677,1 c -1.53473,-3.999444 3.065405,-6.19343 5.765929,-2.75 1.241669,1.583248 1.206907,1.620232 -0.36482,0.388124 C 63.671762,49.498971 61,50.305357 61,52.575604 c 0,1.069859 0.538522,1.431723 1.551938,1.042839 0.889925,-0.341496 1.291322,-0.173849 0.940983,0.393011 C 62.591526,55.469941 61.019001,55.21309 60.361626,53.5 z M 34.157895,52 c 0,-1.375 0.226973,-1.9375 0.504386,-1.25 0.277412,0.6875 0.277412,1.8125 0,2.5 -0.277413,0.6875 -0.504386,0.125 -0.504386,-1.25 z m -9.925892,-5 c 0,-1.925 0.205795,-2.7125 0.457323,-1.75 0.251527,0.9625 0.251527,2.5375 0,3.5 -0.251528,0.9625 -0.457323,0.175 -0.457323,-1.75 z m 10.925892,0 c 0,-1.375 0.226973,-1.9375 0.504386,-1.25 0.277412,0.6875 0.277412,1.8125 0,2.5 -0.277413,0.6875 -0.504386,0.125 -0.504386,-1.25 z m 10.864067,0.897883 c -0.05947,-4.338173 8.975172,-12.991871 13.375921,-12.81193 1.717915,0.07024 1.607061,0.235184 -0.606524,0.902455 -4.614583,1.391037 -8.942402,5.133144 -10.885925,9.412661 -1.02383,2.254412 -1.871393,3.377978 -1.883472,2.496814 z M 28.157895,45 c 0,-1.375 0.226973,-1.9375 0.504386,-1.25 0.277412,0.6875 0.277412,1.8125 0,2.5 -0.277413,0.6875 -0.504386,0.125 -0.504386,-1.25 z M 83.298892,68.111783 C 84.861104,67.893194 87.956426,59.43339 87.978038,55.323242 87.997238,51.671733 87.622734,50.958279 85,49.649887 l -3,-1.496598 -0.02196,4.673356 C 81.956201,57.473326 79.213294,65.132109 77.104127,66.435646 76.496857,66.810959 76,67.536015 76,68.04688 c 0,0.775122 2.09026,0.793709 7.298892,0.0649 z M 80,67.2 c 0,-0.44 0.483657,-1.283657 1.074794,-1.874794 0.591137,-0.591137 1.696386,-2.818637 2.456108,-4.95 0.759722,-2.131363 1.401064,-3.069779 1.425205,-2.085368 0.02414,0.984411 -0.865253,3.571911 -1.976431,5.75 C 81.051219,67.819926 80,68.93482 80,67.2 z m 5.194949,-13.7 c 0.02038,-1.65 0.244498,-2.203936 0.498042,-1.230968 0.253543,0.972967 0.236869,2.322967 -0.03705,3 C 85.382014,55.946064 85.174569,55.15 85.194949,53.5 z m 3.545394,10.25 c 1.738387,-3.627341 2.11782,-5.362437 1.417137,-6.48036 -0.361614,-0.576947 -1.36691,1.151361 -2.233992,3.840683 -1.617462,5.016689 -1.109301,6.658819 0.816855,2.639677 z M 20.683114,42.8125 c -0.319226,-0.797733 -0.556183,-0.560776 -0.604167,0.604167 -0.04342,1.054166 0.192928,1.644791 0.52522,1.3125 0.332291,-0.332292 0.367818,-1.194792 0.07895,-1.916667 z"
                id="path3085"
                inkscape:connector-curvature="0"/>
        <path
                style="fill:#333333"
                d="M 33.696502,72.192883 C 31.938426,71.433065 26.675,70.578388 22,70.293602 12.583844,69.72 9.8258337,68.497667 7.41097,63.827835 4.0701832,57.367466 8.194706,47.994693 15.040015,46.491211 c 2.136766,-0.469312 2.897163,-1.342806 3.371911,-3.873426 0.678282,-3.615556 4.762882,-7.991201 8.524621,-9.132036 1.340101,-0.406417 3.92643,-2.318676 5.747397,-4.249464 3.25878,-3.455313 3.412298,-3.50238 9.761325,-2.992741 4.313256,0.346226 7.047568,0.102666 8.252602,-0.735107 5.553506,-3.860948 13.804715,-2.095807 17.208763,3.681387 1.072735,1.820597 2.911804,4.253414 4.086821,5.406261 1.175017,1.152846 2.732317,3.852846 3.460667,6 C 76.587838,43.938244 77.431897,44.715843 81.3199,46 92.211263,49.597275 95.426442,59.727405 88.025711,67.128135 85.723477,69.430369 84.270957,70 80.70265,70 c -2.448159,0 -6.420274,0.74539 -8.826923,1.656423 -5.872643,2.223077 -33.382325,2.609618 -38.179225,0.53646 z M 67.5,71 c 4.300959,-1.1 9.345289,-2 11.209622,-2 4.57865,0 8.9356,-2.413255 10.773451,-5.967267 C 91.437319,59.253639 91.394213,57.519134 89.25,53.654292 87.06713,49.719773 86.446615,49.259204 81.5,47.901964 76.459036,46.518836 75.38052,45.622663 74.671051,42.227574 74.357562,40.727408 72.509195,37.7 70.563569,35.5 c -1.945627,-2.2 -3.76779,-4.690135 -4.049252,-5.533634 -0.687807,-2.061255 -5.763946,-4.967257 -8.668609,-4.962628 -1.290139,0.0021 -3.881505,0.940016 -5.758591,2.084357 -3.05902,1.864891 -3.861284,1.955074 -7.737553,0.869786 C 39.040462,26.471424 34.962671,27.839312 31.90596,32.132068 30.782778,33.70943 29.02898,35 28.008631,35 c -3.041203,0 -7.740745,4.707364 -8.684807,8.699261 -0.712039,3.010808 -1.458977,3.838188 -4.077598,4.516741 -2.034872,0.527289 -4.126416,2.185422 -5.7260513,4.539497 -2.8040349,4.126508 -3.0626559,5.959778 -1.3660489,9.683425 1.9566202,4.294314 5.5918092,5.902692 13.9468232,6.170731 4.187504,0.13434 9.319679,0.957081 11.404834,1.828315 2.907886,1.214992 5.586416,1.434344 11.496386,0.941472 4.947887,-0.412638 8.383794,-0.248537 9.601513,0.458576 C 57.237192,73.367259 58.587075,73.279542 67.5,71 z"
                id="path3083"
                inkscape:connector-curvature="0"/>
        <path
                style="fill:#3c3c3c"
                d="m 38.75,73.337719 c 0.6875,-0.277412 1.8125,-0.277412 2.5,0 0.6875,0.277413 0.125,0.504386 -1.25,0.504386 -1.375,0 -1.9375,-0.226973 -1.25,-0.504386 z M 64.5,71.866246 c 4.95,-1.077622 11.542519,-2.334015 14.650043,-2.791985 3.107524,-0.457971 6.257524,-1.178048 7,-1.600172 1.034508,-0.588154 1.08197,-0.476914 0.203112,0.476051 -0.630765,0.683953 -3.780765,1.60614 -7,2.049306 C 76.13392,70.442611 71.025,71.51869 68,72.390732 c -3.025,0.872042 -7.075,1.551622 -9,1.510178 -2.333673,-0.05024 -0.500872,-0.728266 5.5,-2.034664 z M 34,72.082193 c -0.825,-0.471344 -3.309205,-1.154762 -5.520455,-1.518707 -2.21125,-0.363946 -4.68625,-1.106312 -5.5,-1.649703 -2.416809,-1.613853 5.97692,0.07732 10.520455,2.119671 2.2,0.988913 3.55,1.822258 3,1.851877 -0.55,0.02962 -1.675,-0.331794 -2.5,-0.803138 z m 10.318524,-0.300214 c 1.528314,-0.971923 7.834638,-0.971923 9.362952,0 0.649811,0.413245 -1.456853,0.751354 -4.681476,0.751354 -3.224623,0 -5.331287,-0.338109 -4.681476,-0.751354 z M 16.25,69.310674 c 0.9625,-0.251527 2.5375,-0.251527 3.5,0 0.9625,0.251528 0.175,0.457323 -1.75,0.457323 -1.925,0 -2.7125,-0.205795 -1.75,-0.457323 z m -4.742921,-1.29922 c -0.350339,-0.56686 0.05106,-0.734507 0.940983,-0.393011 C 14.180479,68.283234 14.497449,69 13.059017,69 12.541476,69 11.843104,68.555154 11.507079,68.011454 z M 7.4588815,63.933469 c -0.3625339,-0.586592 -0.4446839,-1.281 -0.1825556,-1.543128 0.2621283,-0.262129 0.7430661,0.21781 1.0687507,1.066531 0.676184,1.762107 0.099854,2.072058 -0.8861951,0.476597 z M 89.564293,63.706872 c 0.375531,-0.986221 0.934692,-1.541221 1.242579,-1.233333 0.307887,0.307887 6.34e-4,1.114794 -0.682784,1.793128 -0.987616,0.980267 -1.10248,0.865403 -0.559795,-0.559795 z M 6.1949487,58.5 c 0.02038,-1.65 0.2444986,-2.203936 0.498042,-1.230968 0.2535434,0.972967 0.2368691,2.322967 -0.037054,3 C 6.3820136,60.946064 6.174569,60.15 6.1949487,58.5 z m 85.0000003,0 c 0.02038,-1.65 0.244498,-2.203936 0.498042,-1.230968 0.253543,0.972967 0.236869,2.322967 -0.03705,3 C 91.382014,60.946064 91.174569,60.15 91.194949,58.5 z M 7,54.059017 C 7,53.541476 7.4448455,52.843104 7.9885456,52.507079 8.5554057,52.15674 8.7230531,52.558137 8.3815568,53.448062 7.7167659,55.180479 7,55.497449 7,54.059017 z m 82.564293,-0.765889 c -0.542685,-1.425198 -0.427821,-1.540062 0.559795,-0.559795 0.683418,0.678334 0.990671,1.485241 0.682784,1.793128 -0.307887,0.307888 -0.867048,-0.247112 -1.242579,-1.233333 z m -76.83096,-5.417216 c 0.678334,-0.683418 1.485241,-0.990671 1.793128,-0.682784 0.307888,0.307887 -0.247112,0.867048 -1.233333,1.242579 -1.425198,0.542685 -1.540062,0.427821 -0.559795,-0.559795 z M 84,48 C 83.098708,47.41754 82.975367,47.024514 83.690983,47.015313 84.346024,47.006891 85.160081,47.45 85.5,48 c 0.767305,1.241525 0.421123,1.241525 -1.5,0 z M 17.731213,44.919841 c 0.353609,-1.352204 0.806902,-1.805497 1.05655,-1.056551 0.240481,0.721441 -0.03821,1.787158 -0.619313,2.36826 -0.742068,0.742068 -0.872211,0.351636 -0.437237,-1.311709 z m 58.248731,-0.444007 c -0.69572,-0.838291 -1.071285,-1.717826 -0.83459,-1.954522 0.236696,-0.236695 0.979634,0.44918 1.650975,1.524166 1.451813,2.324723 0.967628,2.57996 -0.816385,0.430356 z M 19,41.059017 c 0,-0.517541 0.444846,-1.215913 0.988546,-1.551938 0.56686,-0.350339 0.734507,0.05106 0.393011,0.940983 C 19.716766,42.180479 19,42.497449 19,41.059017 z m 5.733333,-6.183105 c 0.678334,-0.683418 1.485241,-0.990671 1.793128,-0.682784 0.307888,0.307887 -0.247112,0.867048 -1.233333,1.242579 -1.425198,0.542685 -1.540062,0.427821 -0.559795,-0.559795 z M 69.2,33.8 C 68.54,33.14 68,32.093441 68,31.474314 c 0,-2.210744 -4.870387,-5.647242 -8.73896,-6.166127 -2.622887,-0.351803 -5.021441,0.03367 -7.191223,1.155709 -1.790623,0.925967 -3.462346,1.476908 -3.714941,1.224313 -0.252595,-0.252595 1.546276,-1.430128 3.997492,-2.616742 6.870217,-3.325815 12.569366,-1.269885 16.406291,5.918461 C 71.037405,35.259078 71.107895,35.707895 69.2,33.8 z M 29,33.622445 c 0,-0.207656 0.7875,-0.995156 1.75,-1.75 C 32.336056,30.628574 32.371426,30.663944 31.127555,32.25 29.821186,33.915748 29,34.445479 29,33.622445 z m 5.733333,-5.746533 c 0.678334,-0.683418 1.485241,-0.990671 1.793128,-0.682784 0.307888,0.307887 -0.247112,0.867048 -1.233333,1.242579 -1.425198,0.542685 -1.540062,0.427821 -0.559795,-0.559795 z M 39.25,26.310674 c 0.9625,-0.251527 2.5375,-0.251527 3.5,0 0.9625,0.251528 0.175,0.457323 -1.75,0.457323 -1.925,0 -2.7125,-0.205795 -1.75,-0.457323 z"
                id="path3081"
                inkscape:connector-curvature="0"/>
    </g>
</svg>
