<?xml version="1.0" encoding="UTF-8" standalone="no"?>
<svg
   width="512"
   height="128"
   id="svg2"
   version="1.1"
   inkscape:version="1.1.1 (3bf5ae0d25, 2021-09-20, custom)"
   sodipodi:docname="puddlelogo.svg"
   inkscape:export-filename="puddlelogo.png"
   inkscape:export-xdpi="96"
   inkscape:export-ydpi="96"
   xmlns:inkscape="http://www.inkscape.org/namespaces/inkscape"
   xmlns:sodipodi="http://sodipodi.sourceforge.net/DTD/sodipodi-0.dtd"
   xmlns:xlink="http://www.w3.org/1999/xlink"
   xmlns="http://www.w3.org/2000/svg"
   xmlns:svg="http://www.w3.org/2000/svg"
   xmlns:rdf="http://www.w3.org/1999/02/22-rdf-syntax-ns#"
   xmlns:cc="http://creativecommons.org/ns#"
   xmlns:dc="http://purl.org/dc/elements/1.1/">
  <defs
     id="defs4">
    <linearGradient
       id="linearGradient3756">
      <stop
         id="stop3758"
         offset="0"
         style="stop-color:#d8dae1;stop-opacity:1" />
      <stop
         id="stop3760"
         offset="1"
         style="stop-color:#b0b3b4;stop-opacity:1" />
    </linearGradient>
    <linearGradient
       inkscape:collect="always"
       xlink:href="#linearGradient3756"
       id="linearGradient3740"
       x1="-0.79350001"
       y1="65.499832"
       x2="567.79352"
       y2="65.499832"
       gradientUnits="userSpaceOnUse"
       gradientTransform="matrix(0.9003477,0,0,0.99604042,105.45803,901.82808)" />
    <filter
       id="filter3742"
       inkscape:label="Drop shadow"
       width="1.0743639"
       height="1.3262421"
       x="-0.026246096"
       y="-0.11514425"
       color-interpolation-filters="sRGB">
      <feGaussianBlur
         id="feGaussianBlur3744"
         in="SourceAlpha"
         stdDeviation="2.000000"
         result="blur" />
      <feColorMatrix
         id="feColorMatrix3746"
         result="bluralpha"
         type="matrix"
         values="1 0 0 0 0 0 1 0 0 0 0 0 1 0 0 0 0 0 0.500000 0 " />
      <feOffset
         id="feOffset3748"
         in="bluralpha"
         dx="4.000000"
         dy="4.000000"
         result="offsetBlur" />
      <feMerge
         id="feMerge3750">
        <feMergeNode
           id="feMergeNode3752"
           in="offsetBlur" />
        <feMergeNode
           id="feMergeNode3754"
           in="SourceGraphic" />
      </feMerge>
    </filter>
  </defs>
  <sodipodi:namedview
     id="base"
     pagecolor="#ffffff"
     bordercolor="#666666"
     borderopacity="1.0"
     inkscape:pageopacity="1"
     inkscape:pageshadow="2"
     inkscape:zoom="1"
     inkscape:cx="-88.5"
     inkscape:cy="-43"
     inkscape:document-units="px"
     inkscape:current-layer="layer1"
     showgrid="false"
     inkscape:window-width="2519"
     inkscape:window-height="1416"
     inkscape:window-x="41"
     inkscape:window-y="0"
     inkscape:window-maximized="1"
     inkscape:document-rotation="0"
     inkscape:pagecheckerboard="0" />
  <metadata
     id="metadata7">
    <rdf:RDF>
      <cc:Work
         rdf:about="">
        <dc:format>image/svg+xml</dc:format>
        <dc:type
           rdf:resource="http://purl.org/dc/dcmitype/StillImage" />
      </cc:Work>
    </rdf:RDF>
  </metadata>
  <g
     inkscape:label="Layer 1"
     inkscape:groupmode="layer"
     id="layer1"
     transform="translate(-104.70659,-903.06854)">
    <rect
       style="fill:url(#linearGradient3740);fill-opacity:1;stroke:#ffffff;stroke-width:2;stroke-linecap:square;stroke-linejoin:round;stroke-miterlimit:5.1;stroke-dasharray:none;stroke-opacity:1"
       id="rect2950"
       width="510.49713"
       height="126.49713"
       x="105.45802"
       y="903.82001"
       inkscape:label="background_gradient"
       sodipodi:insensitive="true"
       inkscape:export-filename="puddlelogo.png"
       inkscape:export-xdpi="90"
       inkscape:export-ydpi="90" />
    <g
       aria-label="puddletag"
       transform="matrix(2.2591913,0,0,2.2591913,103.43902,859.88841)"
       id="flowRoot3736"
       style="line-height:0.01%;font-family:'Impossibilium BRK';-inkscape-font-specification:'Impossibilium BRK';filter:url(#filter3742)"
       inkscape:label="name_as_path">
      <path
         d="m 191.74063,68.068336 0.39041,0.216893 h 1.56163 l 0.26027,-0.216893 h 2.16893 l 0.34703,-0.260272 h 1.51825 q 0.21689,-0.216893 0.91095,-0.433786 0.73743,-0.216893 1.08446,-0.390407 0.99771,-0.477165 1.95204,-1.171222 0.95433,-0.694058 1.69177,-1.605009 0.78081,-0.867572 1.2146,-1.952037 0.47716,-1.041086 0.47716,-2.212308 0,-1.908659 -1.2146,-3.296774 -1.2146,-1.431494 -2.99312,-2.038794 -0.39041,-0.130136 -0.8242,-0.08676 -0.43378,0 -0.82419,-0.173514 h -4.64151 l -0.95433,-0.954329 v -0.04338 q 0,-0.433786 0.34703,-0.737436 0.34703,-0.30365 0.82419,-0.477165 0.47717,-0.173514 0.95433,-0.260271 0.52054,-0.130136 0.82419,-0.216893 0.2169,-0.08676 0.43379,-0.216893 0.26027,-0.130136 0.47717,-0.216893 0.0434,-0.04338 0.21689,-0.04338 0.17351,-0.04338 0.21689,-0.04338 0.39041,-0.216893 0.73744,-0.563922 0.3904,-0.347029 0.82419,-0.477165 l 1.38812,-1.431494 q 0.0434,-0.04338 0.0867,-0.173514 0.0434,-0.130136 0.0868,-0.173515 0.0434,-0.04338 0.17351,-0.216893 0.17352,-0.173514 0.17352,-0.216893 0.0868,-0.130135 0.26027,-0.650679 0.21689,-0.520543 0.26027,-0.650679 0.2169,-0.694057 0.26027,-1.388115 0.0434,-0.737436 0.39041,-1.431494 0.17352,-0.390407 0.47717,-0.824193 0.30365,-0.433786 0.56392,-0.867572 0.30365,-0.433786 0.47716,-0.867572 0.2169,-0.477165 0.2169,-0.910951 0,-0.130136 -0.0868,-0.260271 -0.0434,-0.173515 -0.0868,-0.260272 l -1.12784,-1.171222 q -0.0434,0 -0.17352,0 -0.0868,-0.04338 -0.0868,-0.08676 -0.0434,0 -0.2169,-0.04338 -0.13013,-0.08676 -0.17351,-0.130136 -0.26027,-0.04338 -0.69406,0 -0.39041,0 -0.6073,-0.30365 h -1.2146 q -0.21689,-0.216893 -0.6073,-0.260272 -0.34703,-0.08676 -0.73744,-0.130135 -0.3904,-0.04338 -0.78081,-0.08676 -0.34703,-0.04338 -0.6073,-0.260271 -0.17352,0 -0.73744,0 -0.56392,-0.04338 -0.73743,-0.08676 -0.0868,0 -0.30365,-0.04338 -0.17352,-0.04338 -0.30365,-0.130136 h -2.68948 q -0.56392,0.30365 -1.17122,0.30365 -0.6073,-0.04338 -1.2146,0.130136 -0.0434,0.04338 -0.21689,0.08676 -0.13014,0 -0.2169,0 -1.60501,0.737437 -2.73285,1.691766 -1.12784,0.91095 -2.08217,2.429202 -0.2169,0.30365 -0.26027,0.6073 -0.0434,0.30365 -0.26028,0.6073 l -0.17351,1.431494 q -0.0868,0.08676 -0.0868,0.216893 0,0.130136 0,0.260272 0,0.433786 0.0868,0.91095 0.13014,0.477165 0.17351,0.867572 0.30365,0.347029 0.43379,0.780815 0.13014,0.433786 0.34703,0.780815 0.13014,0.260272 0.34703,0.563922 0.26027,0.30365 0.47716,0.650679 0.2169,0.30365 0.39041,0.6073 0.17351,0.303651 0.17351,0.563922 v 1.474873 q 0,0 -0.21689,0.433786 -0.17351,0.390407 -0.30365,0.6073 -0.17351,0.347029 -0.34703,0.694058 -0.13013,0.347028 -0.34703,0.694057 v 4.120967 q 0,0.130136 -0.13013,0.390408 -0.0868,0.30365 -0.13014,0.390407 -0.21689,0.520543 -0.47716,1.084465 -0.26027,0.607301 -0.56392,1.127844 v 0.780815 q 0,0.867572 0.34702,1.648386 0.34703,0.824194 0.91096,1.518252 0.56392,0.694057 1.30135,1.171222 0.73744,0.520543 1.56163,0.737436 0.0434,0 0.17352,0.04338 0.13013,0.04338 0.17351,0.04338 0,0 0.0868,0.08676 0.13013,0.08676 0.17351,0.08676 0.30365,0.08676 0.65068,0.04338 0.34703,-0.04338 0.56392,0.260272 z m 0.91095,-3.036502 q -0.17352,-0.08676 -0.69406,-0.303651 -0.47716,-0.173514 -0.65068,-0.216893 l -1.30136,-1.301358 q -0.0867,-0.08676 -0.0867,-0.390407 0,-0.30365 0,-0.390407 v -0.433786 q 0.0434,-0.04338 0.0867,-0.130136 0.0434,-0.08676 0.0868,-0.130136 0.13014,-0.173514 0.6073,-0.650679 0.47717,-0.433786 0.6073,-0.563922 0.26027,-0.04338 0.52055,-0.30365 h 4.38123 q 0.34703,0.173514 0.73744,0.216893 0.39041,0.08676 0.69406,0.347029 0.21689,0.216893 0.65068,0.6073 0.47716,0.433786 0.47716,0.910951 0,0.130136 -0.13013,0.30365 -0.0868,0.173514 -0.13014,0.347029 l -1.43149,1.388115 q -0.0434,0 -0.13014,0.04338 -0.0868,0.04338 -0.13014,0.04338 -0.3904,0.216893 -1.08446,0.433786 -0.65068,0.260272 -1.12784,0.260272 h -0.0434 q -0.13014,0 -0.39041,0 -0.26027,0 -0.56392,-0.04338 -0.30365,0 -0.6073,-0.04338 -0.26027,0 -0.34703,0 z m -0.26027,-24.118503 q 0.30365,-0.08676 0.43378,-0.173514 0.13014,-0.130136 0.47717,-0.130136 0.34703,0 0.47716,0.130136 0.13014,0.08676 0.43379,0.173514 0.43378,0.390408 0.78081,0.780815 0.39041,0.390408 0.6073,0.95433 0,0.04338 0.0434,0.173514 0.0434,0.130136 0.0434,0.173514 0.0434,0.08676 0.0868,0.216893 0.0434,0.08676 0.0868,0.130136 v 2.819609 q -0.13014,0.173515 -0.30365,0.520543 -0.17352,0.303651 -0.2169,0.520544 l -0.86757,0.867572 q -0.34703,0.08676 -0.52054,0.260271 -0.0868,0 -0.26027,0.04338 -0.13014,0 -0.17352,0 -0.86757,0 -1.51825,-0.694058 -0.65068,-0.694057 -0.95433,-1.431494 0,-0.04338 -0.0434,-0.08676 -0.0434,-0.08676 -0.0434,-0.08676 0,-0.08676 -0.0434,-0.173514 -0.0434,-0.08676 -0.0434,-0.08676 v -2.646094 q 0,-0.650679 0.52054,-1.25798 0.56392,-0.6073 0.99771,-0.997708 z"
         style="font-size:43.3786px;line-height:125%"
         id="path3754"
         inkscape:label="g" />
      <path
         d="m 167.96913,58.785315 h -1.04108 q -0.2169,-0.216893 -0.52055,-0.30365 -0.30365,-0.08676 -0.52054,-0.260272 -0.34703,-0.216893 -0.82419,-0.650679 -0.47717,-0.433786 -0.91095,-0.954329 -0.43379,-0.520543 -0.73744,-1.041086 -0.26027,-0.563922 -0.26027,-1.041087 v -2.602716 q 0.21689,-0.216893 0.26027,-0.563922 0.0868,-0.347028 0.26027,-0.6073 0.13014,-0.173514 0.30365,-0.347029 0.21689,-0.173514 0.21689,-0.433786 l 1.12785,-1.127844 q 0.0434,0 0.13013,0 0.13014,-0.04338 0.13014,-0.08676 0.0868,-0.04338 0.39041,-0.347029 0.34703,-0.30365 0.43378,-0.347028 0.26027,-0.216893 0.6073,-0.347029 0.39041,-0.130136 0.69406,-0.260272 0.65068,-0.347029 1.30136,-0.694057 0.65068,-0.347029 1.30136,-0.563922 0.43378,-0.130136 0.78081,-0.173515 0.34703,-0.04338 0.8242,-0.173514 0.17351,-0.04338 0.3904,-0.173514 0.2169,-0.173515 0.39041,-0.260272 0.73744,-0.347029 1.34474,-0.867572 0.6073,-0.563922 0.6073,-1.518251 0,-0.433786 -0.26027,-0.867572 -0.2169,-0.433786 -0.56393,-0.737436 -0.34703,-0.347029 -0.78081,-0.520544 -0.43379,-0.216893 -0.86757,-0.216893 h -0.52055 q -0.0434,0.04338 -0.13013,0.130136 -0.0868,0.04338 -0.13014,0.04338 -0.82419,0.347029 -1.56163,0.997708 -0.69406,0.6073 -1.34473,1.214601 -0.30365,0.08676 -0.6073,0.30365 -0.26028,0.216893 -0.56393,0.216893 -0.47716,0 -0.95433,-0.433786 -0.43378,-0.433786 -0.65067,-0.780815 -0.0434,-0.04338 -0.0434,-0.260272 v -0.30365 q 0,-0.997708 0.52054,-1.648387 0.52054,-0.694057 1.25798,-1.301358 0.21689,-0.08676 0.30365,-0.216893 0.13014,-0.130136 0.30365,-0.216893 0.82419,-0.477164 1.60501,-0.737436 0.78081,-0.260272 1.64838,-0.477165 0.0434,-0.04338 0.2169,-0.08676 0.17351,-0.08676 0.21689,-0.08676 0.0868,0 0.43379,-0.04338 0.3904,-0.04338 0.69405,-0.04338 h 0.26028 q 0.0434,-0.04338 0.26027,-0.08676 0.21689,-0.08676 0.26027,-0.08676 0.0434,-0.04338 0.30365,-0.04338 h 0.34703 0.26027 q 0.21689,0 0.21689,0.04338 l 0.34703,0.216893 h 1.51825 q 0.30365,0.260272 0.69406,0.347029 0.43379,0.08676 0.78082,0.30365 1.56162,0.95433 2.12555,2.038795 0.6073,1.041086 0.86757,2.77623 0,0.04338 0,0.173515 0.0434,0.130135 0.0868,0.173514 0,0.173514 0.0434,0.6073 0.0434,0.433786 0.0434,0.520544 v 7.634633 q 0.0434,0.04338 0.13014,0.303651 0.0868,0.216893 0.21689,0.520543 0.13014,0.30365 0.21689,0.6073 0.13014,0.260272 0.2169,0.390408 0.30365,0.563921 0.69406,1.127843 0.43378,0.563922 0.43378,1.214601 0,0.260272 -0.13013,0.433786 -0.0868,0.130136 -0.13014,0.390407 -0.6073,0.694058 -1.17122,1.084466 -0.52055,0.347028 -1.38812,0.563921 -0.0434,0 -0.39041,0.04338 -0.30365,0 -0.47716,0.130136 l -1.64839,0.173514 q -0.0434,0 -0.0868,0.04338 -0.0434,0.04338 -0.0868,0.04338 h -0.0434 -0.0434 q -0.69406,-0.216893 -1.38811,-0.30365 -0.69406,-0.08676 -1.4315,-0.30365 -0.0867,0 -0.47716,0 -0.39041,-0.04338 -0.52055,-0.04338 -0.21689,0 -0.6073,0.04338 -0.34702,0 -0.3904,0 -0.0868,0 -0.47717,0.08676 -0.3904,0.08676 -0.56392,0.173515 -0.26027,0.08676 -0.69406,0.173514 -0.3904,0.08676 -0.56392,0.30365 h -1.30136 q -0.0867,0.216893 -0.26027,0.216893 h -0.34703 -0.34703 q -0.17351,0 -0.26027,-0.216893 z m 3.16664,-4.94516 q 0.21689,0.08676 0.34703,0.173514 0.17351,0.08676 0.39041,0.08676 0.30365,0 0.78081,-0.216893 0.47717,-0.260271 0.91095,-0.6073 0.43379,-0.347029 0.73744,-0.694058 0.30365,-0.390407 0.30365,-0.650679 V 50.67352 q 0,-0.173515 -0.21689,-0.390408 -0.17352,-0.260271 -0.43379,-0.433786 -0.26027,-0.216893 -0.56392,-0.347028 -0.26027,-0.130136 -0.43379,-0.130136 -0.39041,0 -0.69406,0.216893 -0.26027,0.216893 -0.6073,0.30365 l -0.86757,0.867572 q -0.0868,0.260272 -0.26027,0.520543 -0.13014,0.260272 -0.30365,0.477165 v 0.954329 q 0.17351,0.216893 0.17351,0.433786 z"
         style="font-size:43.3786px;line-height:125%"
         id="path3752"
         inkscape:label="a" />
      <path
         d="m 157.73177,58.828694 q 0.0434,0.04338 0.13013,0.08676 0.0868,0.08676 0.13014,0.130136 h 0.0434 0.0434 q 0.0434,-0.04338 0.13014,-0.130136 0.13014,-0.04338 0.13014,-0.08676 h 1.25798 q 0.30365,-0.260272 0.34702,-0.216893 0.0868,0.04338 0.43379,-0.08676 0.6073,-0.216893 0.91095,-0.520544 0.34703,-0.30365 0.82419,-0.867572 0.17352,-0.347029 0.17352,-0.694057 0,-0.216893 -0.0868,-0.303651 -0.0434,-0.08676 -0.17351,-0.347028 -0.26027,-0.477165 -0.65068,-0.650679 -0.39041,-0.216893 -0.8242,-0.303651 -0.3904,-0.130135 -0.78081,-0.216893 -0.39041,-0.130135 -0.65068,-0.390407 l -1.2146,-1.214601 -0.26027,-0.520543 q 0,0 0,-0.520543 0,-0.520543 -0.0434,-1.25798 0,-0.780814 -0.0434,-1.561629 0,-0.780815 0,-1.301358 v -1.431494 q 0,-1.084465 0.0868,-1.778523 0.13013,-0.737436 0.43378,-1.257979 0.34703,-0.520543 0.91095,-0.954329 0.60731,-0.433786 1.56163,-0.95433 0.0868,-0.08676 0.30365,-0.173514 0.26028,-0.130136 0.30365,-0.173514 0.34703,-0.303651 0.69406,-0.607301 0.34703,-0.347029 0.34703,-0.824193 0,-0.303651 -0.30365,-0.694058 -0.26027,-0.433786 -0.69406,-0.780815 -0.3904,-0.347029 -0.86757,-0.6073 -0.43378,-0.260272 -0.73743,-0.30365 l -1.4315,-1.431494 q -0.0434,-0.260272 -0.0868,-0.260272 -0.0434,0 -0.17351,-0.260271 -0.34703,-0.737437 -0.56392,-1.344737 -0.17352,-0.6073 -0.91095,-1.171222 -0.0868,-0.04338 -0.30365,-0.08676 -0.2169,-0.08676 -0.34703,-0.08676 -0.6073,0 -1.08447,0.477165 -0.47716,0.433786 -0.91095,1.084465 -0.3904,0.650679 -0.78081,1.301358 -0.34703,0.650679 -0.69406,1.041086 -0.0868,0.130136 -0.34703,0.433786 -0.26027,0.260272 -0.56392,0.607301 -0.26027,0.30365 -0.52054,0.6073 -0.26028,0.260272 -0.39041,0.390408 -0.17352,0.30365 -0.39041,0.6073 -0.21689,0.260272 -0.30365,0.6073 v 0.650679 q 0,0.910951 0.34703,1.691766 0.34703,0.780815 0.78082,1.605008 0.0434,0.390408 0.26027,0.780815 0,1.691765 -0.0868,3.513667 -0.0434,1.821901 0.17351,3.600424 0.2169,1.735144 0.91095,3.340152 0.69406,1.561629 2.16893,2.732852 0.13014,0.08676 0.43379,0.260271 0.34703,0.173515 0.69406,0.347029 0.39041,0.173515 0.65068,0.347029 0.30365,0.130136 0.30365,0.130136 z"
         style="font-size:43.3786px;line-height:125%"
         id="path3750"
         inkscape:label="t" />
      <path
         d="m 139.12232,58.785315 -1.73514,-0.04338 -0.26027,-0.260272 h -0.99771 q -0.0434,-0.04338 -0.34703,-0.173514 -0.30365,-0.130136 -0.69406,-0.260272 -0.3904,-0.173514 -0.78081,-0.30365 -0.34703,-0.173515 -0.52054,-0.30365 -0.0868,-0.08676 -0.43379,-0.347029 -0.34703,-0.303651 -0.43379,-0.347029 -0.0868,-0.08676 -0.26027,-0.08676 l -1.43149,-1.431494 q 0,-0.173515 -0.0868,-0.260272 -0.0434,-0.08676 -0.34703,-0.390407 -0.26027,-0.30365 -0.34703,-0.390408 -0.13013,-0.173514 -0.34703,-0.6073 -0.21689,-0.433786 -0.43378,-0.910951 -0.17352,-0.477164 -0.34703,-0.91095 -0.13014,-0.433786 -0.17352,-0.650679 0,-0.04338 -0.0434,-0.260272 0,-0.216893 0,-0.433786 0,-0.216893 -0.0434,-0.433786 0,-0.216893 0,-0.260271 0,-0.04338 -0.0868,-0.216893 -0.0868,-0.173515 -0.0868,-0.216893 V 48.72148 q 0,-0.433786 -0.0434,-0.910951 0,-0.520543 0.2169,-0.867572 l 0.17351,-1.86528 q 0.21689,-0.260271 0.26027,-0.780815 0.0868,-0.520543 0.17352,-0.867572 0.52054,-1.518251 1.47487,-2.689473 0.95433,-1.171222 2.21231,-1.995416 1.25798,-0.867572 2.68947,-1.344736 1.47487,-0.520543 2.99313,-0.694058 0.34702,-0.08676 0.56392,-0.130136 0.21689,-0.08676 0.56392,-0.08676 0.17351,0 0.34703,0.04338 0.17351,0 0.26027,0.216893 h 1.86528 q 0.13014,0.260271 0.47716,0.260271 0.34703,-0.04338 0.56393,0.04338 0.21689,0.04338 0.43378,0.216893 0.2169,0.130136 0.43379,0.216893 0.78081,0.347029 1.51825,0.910951 0.73744,0.520543 1.34474,1.2146 0.6073,0.694058 0.95433,1.518252 0.3904,0.824193 0.3904,1.691765 0,0.477165 -0.0434,0.997708 -0.0434,0.477164 -0.3904,0.824193 -0.6073,0.607301 -1.17123,1.127844 -0.52054,0.520543 -1.38811,0.6073 -0.0434,0 -0.26027,0.04338 -0.2169,0.04338 -0.47717,0.08676 -0.26027,0 -0.47716,0.04338 -0.21689,0.04338 -0.26027,0.04338 -0.13014,0 -0.26028,0.130136 h -4.98853 q -0.13014,0.130136 -0.30365,0.130136 -0.0434,0 -0.30365,0.08676 -0.99771,0.390407 -1.82191,1.301358 -0.82419,0.867572 -0.82419,1.995416 0,1.431494 0.73744,2.429201 0.78081,0.997708 1.8219,1.86528 0.0434,0 0.13013,0.04338 0.0868,0.04338 0.13014,0.04338 0.91095,0.433786 1.77852,0.433786 0.95433,0 1.77853,-0.433786 0.82419,-0.433786 1.51825,-1.041086 0.73743,-0.650679 1.34473,-1.388115 0.65068,-0.737436 1.25798,-1.344737 0.26027,-0.216893 0.47717,-0.216893 0.26027,-0.04338 0.6073,-0.04338 h 0.52054 q 0.56392,0.477164 0.78082,0.91095 0.26027,0.433786 0.26027,1.084465 0,1.127844 -0.43379,2.082173 -0.43379,0.910951 -1.17122,1.648387 -0.73744,0.694057 -1.69177,1.171222 -0.95433,0.477165 -1.95203,0.694058 -0.13014,0.04338 -0.47717,0.08676 -0.30365,0.04338 -0.65068,0.130136 -0.34703,0.04338 -0.65068,0.130136 -0.26027,0.08676 -0.30365,0.216893 h -1.86528 q -0.13013,0.216893 -0.3904,0.216893 -0.2169,0 -0.30365,-0.216893 z m -1.38811,-16.830897 q 0,0.650679 0.43378,1.084465 0.43379,0.390407 1.12785,0.390407 0.65068,0 1.2146,-0.520543 0.6073,-0.520543 0.6073,-1.171222 v -0.04338 q -0.0868,-0.347028 -0.47717,-0.694057 -0.34702,-0.347029 -0.56392,-0.563922 h -0.52054 q -0.65068,0 -1.25798,0.390407 -0.56392,0.347029 -0.56392,1.127845 z"
         style="font-size:43.3786px;line-height:125%"
         id="path3748"
         inkscape:label="e" />
      <path
         d="m 119.08137,56.746521 q 0,0.563922 0.39041,1.171222 0.43379,0.563922 1.04109,0.694058 0.17351,0.04338 0.47716,0.04338 0.34703,0 0.56392,0.216893 h 4.98854 q 0.43379,0 0.78082,-0.390407 0.34703,-0.433786 0.52054,-0.737436 0,-0.04338 0.0434,-0.130136 0.0868,-0.08676 0.13014,-0.130136 v -0.520543 -0.520543 q 0,-0.08676 -0.17352,-0.520544 -0.13013,-0.433786 -0.34703,-0.867572 -0.17351,-0.477164 -0.34703,-0.867572 -0.17351,-0.390407 -0.21689,-0.390407 v -1.821901 l -0.21689,-0.260272 V 44.68727 l 0.17351,-0.347029 v -3.253395 l -0.17351,-0.520543 v -6.983955 l 0.17351,-0.260272 v -3.600424 q -0.21689,-0.216893 -0.21689,-0.260271 0.0434,-0.08676 -0.0434,-0.347029 -0.17351,-0.390407 -0.34703,-0.6073 -0.17351,-0.260272 -0.43378,-0.607301 -0.30365,-0.347029 -0.69406,-0.520543 -0.39041,-0.173514 -0.73744,-0.433786 h -2.34244 q -0.0868,0.08676 -0.39041,0.216893 -0.30365,0.08676 -0.69406,0.216893 -0.3904,0.08676 -0.78081,0.173514 -0.34703,0.08676 -0.52055,0.173515 -0.13013,0.08676 -0.3904,0.216893 -0.26027,0.08676 -0.30365,0.130136 -0.2169,0.216893 -0.65068,0.6073 -0.39041,0.390407 -0.39041,0.433786 v 1.301358 q 0.0434,0.04338 0.0868,0.130136 0.0434,0.08676 0.0868,0.130136 0,0.04338 0.0868,0.216893 0.0868,0.130135 0.0868,0.173514 0.34703,0.433786 0.91095,1.127844 0.6073,0.694057 0.82419,1.214601 0.13014,0.260271 0.0868,0.390407 -0.0434,0.08676 0.17352,0.30365 0,0.694058 0,2.385823 0.0434,1.691766 0.0434,3.600424 0.0434,1.908659 0.0434,3.643803 0,1.691765 0,2.342444 0,0.08676 0,0.347029 0.0434,0.260271 0.0434,0.390407 0,0.08676 -0.0434,0.347029 0,0.260272 0,0.347029 -0.0867,0.173514 -0.0867,0.477164 0,0.260272 0,0.390408 v 0.433786 l 0.0867,0.173514 v 3.600424 q 0,0.563922 -0.21689,1.084465 -0.17351,0.520543 -0.43379,1.041087 -0.26027,0.477164 -0.47716,0.997707 -0.17352,0.477165 -0.17352,1.041087 z"
         style="font-size:43.3786px;line-height:125%"
         id="path3746"
         inkscape:label="l" />
      <path
         d="m 97.695713,57.483957 -1.691765,-1.691765 q 0,-0.216893 -0.216893,-0.390408 -0.173515,-0.216893 -0.30365,-0.390407 -0.303651,-0.477165 -0.520544,-0.997708 -0.173514,-0.563922 -0.347028,-1.084465 0,-0.04338 -0.08676,-0.130136 -0.08676,-0.08676 -0.08676,-0.130136 -0.04338,-0.130135 -0.04338,-0.520543 0,-0.30365 -0.216893,-0.520543 v -3.773938 q 0,0 0,-0.130136 0.04338,-0.130136 0.08676,-0.216893 0.216893,-0.780815 0.216893,-1.344737 0,-0.563922 0.216893,-1.344736 0.216893,-0.780815 0.477164,-1.518251 0.303651,-0.737437 0.737437,-1.388116 0.04338,-0.04338 0.216893,-0.260271 0.173514,-0.216893 0.216893,-0.260272 0.04338,-0.08676 0.130135,-0.216893 0.130136,-0.173514 0.130136,-0.216893 0.997708,-0.997708 2.16893,-2.038794 1.171222,-1.084465 2.559346,-1.56163 0.26027,-0.08676 0.43378,-0.04338 0.21689,0 0.34703,-0.260272 h 1.60501 l 0.26027,-0.260272 h 3.38353 q 0.26027,-0.260271 0.52054,-0.30365 0.6073,-0.520543 0.95433,-0.997708 0.39041,-0.520543 0.39041,-1.301358 0,-1.127843 -0.78081,-1.952037 -0.78082,-0.867572 -1.51825,-1.605008 -0.0434,-0.30365 -0.34703,-0.6073 -0.26028,-0.303651 -0.26028,-0.563922 0,-0.173515 0.13014,-0.390408 0.13014,-0.260271 0.21689,-0.347028 0.0868,-0.130136 0.47717,-0.477165 0.39041,-0.390407 0.47716,-0.477165 0.34703,-0.216893 0.86757,-0.433786 0.56393,-0.216893 1.12785,-0.347028 0.6073,-0.173515 1.17122,-0.260272 0.56392,-0.130136 0.95433,-0.130136 0.47716,0 0.99771,0.130136 0.56392,0.130136 0.91095,0.477165 0.6073,0.6073 0.99771,1.171222 0.3904,0.520543 0.43378,1.388115 0,0.216893 0,0.737436 0.0434,0.477165 0.0434,1.041087 0,0.563921 0,1.084465 0.0434,0.520543 0.0434,0.737436 0,0.30365 0.17351,0.694058 v 2.342444 l -0.17351,0.347029 v 11.712222 l 0.21689,0.260272 v 3.426909 q 0,0 0.2169,0.477165 0.21689,0.433786 0.47716,0.997708 0.26027,0.520543 0.47716,1.041086 0.26028,0.477165 0.34703,0.6073 0,0.04338 0.0868,0.173515 0.0868,0.08676 0.0868,0.08676 v 0.390407 q 0,0.694058 -0.56392,1.171223 -0.52055,0.477164 -1.30136,0.824193 -0.73744,0.30365 -1.51825,0.477165 -0.78082,0.130136 -1.30136,0.130136 -0.78082,0 -1.56163,-0.260272 -0.78082,-0.30365 -1.51825,-0.520543 -0.0434,0 -0.13014,-0.04338 -0.0434,-0.04338 -0.0434,-0.04338 l -0.26027,-0.08676 h -1.69176 q -0.30365,0.216893 -0.39041,0.173515 -0.0434,-0.04338 -0.39041,0.08676 -0.56392,0.216893 -1.08446,0.477165 -0.52055,0.260271 -1.08447,0.477164 -0.0434,0 -0.26027,0.04338 -0.21689,0.04338 -0.26027,0.04338 -0.0868,0 -0.26027,0.04338 -0.13014,0.08676 -0.17352,0.130136 h -2.47258 Q 100.5588,58.74194 100.08164,58.74194 99.604468,58.69856 99.257439,58.525047 98.91041,58.308154 98.476624,57.917746 98.086217,57.48396 97.695809,57.48396 Z m 3.036507,-6.983955 q 0.21689,0.347029 0.17351,0.390408 -0.0434,0 0.0868,0.390407 0.26027,0.650679 0.78081,1.301358 0.56392,0.650679 1.17122,1.041087 0.13014,0.08676 0.43379,0.260271 0.34703,0.173515 0.43379,0.173515 h 1.56163 q 0.0434,-0.04338 0.17351,-0.08676 0.13014,-0.04338 0.17351,-0.08676 0.0434,0 0.17352,0 0.13013,-0.04338 0.17351,-0.08676 0.86758,-0.520543 1.60501,-1.388115 0.78082,-0.867572 1.12785,-1.821901 0.13013,-0.433786 0.17351,-0.867572 0.0434,-0.433786 0.26027,-0.824194 v -4.381239 q -0.13013,-0.216893 -0.13013,-0.390407 0.0434,-0.173514 -0.0434,-0.477165 -0.0868,-0.347028 -0.30365,-0.6073 -0.17352,-0.260272 -0.26028,-0.6073 -0.56392,-0.607301 -1.2146,-1.25798 -0.65067,-0.650679 -1.56163,-0.650679 -0.73743,0 -1.47487,0.347029 -0.69406,0.347029 -1.30136,0.867572 -0.6073,0.520543 -1.04108,1.214601 -0.43379,0.650679 -0.65068,1.301358 -0.0868,0.30365 -0.21689,0.867572 -0.0868,0.520543 -0.30365,0.737436 z"
         style="font-size:43.3786px;line-height:125%"
         id="path3744"
         inkscape:label="d" />
      <path
         d="M 73.924225,57.483957 72.23246,55.792192 q 0,-0.216893 -0.216893,-0.390408 -0.173515,-0.216893 -0.303651,-0.390407 -0.30365,-0.477165 -0.520543,-0.997708 -0.173514,-0.563922 -0.347029,-1.084465 0,-0.04338 -0.08676,-0.130136 -0.08676,-0.08676 -0.08676,-0.130136 -0.04338,-0.130135 -0.04338,-0.520543 0,-0.30365 -0.216893,-0.520543 v -3.773938 q 0,0 0,-0.130136 0.04338,-0.130136 0.08676,-0.216893 0.216893,-0.780815 0.216893,-1.344737 0,-0.563922 0.216893,-1.344736 0.216893,-0.780815 0.477164,-1.518251 0.30365,-0.737437 0.737436,-1.388116 0.04338,-0.04338 0.216893,-0.260271 0.173515,-0.216893 0.216893,-0.260272 0.04338,-0.08676 0.130136,-0.216893 0.130136,-0.173514 0.130136,-0.216893 0.997708,-0.997708 2.16893,-2.038794 1.171222,-1.084465 2.559337,-1.56163 0.260272,-0.08676 0.433787,-0.04338 0.216893,0 0.347028,-0.260272 h 1.605009 l 0.260271,-0.260272 h 3.383531 q 0.260272,-0.260271 0.520543,-0.30365 0.607301,-0.520543 0.954329,-0.997708 0.390408,-0.520543 0.390408,-1.301358 0,-1.127843 -0.780815,-1.952037 -0.780815,-0.867572 -1.518251,-1.605008 -0.04338,-0.30365 -0.347029,-0.6073 -0.260271,-0.303651 -0.260271,-0.563922 0,-0.173515 0.130135,-0.390408 0.130136,-0.260271 0.216893,-0.347028 0.08676,-0.130136 0.477165,-0.477165 0.390407,-0.390407 0.477165,-0.477165 0.347028,-0.216893 0.867572,-0.433786 0.563921,-0.216893 1.127843,-0.347028 0.607301,-0.173515 1.171223,-0.260272 0.563921,-0.130136 0.954329,-0.130136 0.477164,0 0.997708,0.130136 0.563921,0.130136 0.91095,0.477165 0.607301,0.6073 0.997708,1.171222 0.390407,0.520543 0.433786,1.388115 0,0.216893 0,0.737436 0.04338,0.477165 0.04338,1.041087 0,0.563921 0,1.084465 0.04338,0.520543 0.04338,0.737436 0,0.30365 0.173515,0.694058 v 2.342444 l -0.173515,0.347029 v 11.712222 l 0.216893,0.260272 v 3.426909 q 0,0 0.216893,0.477165 0.216893,0.433786 0.477165,0.997708 0.260271,0.520543 0.477164,1.041086 0.260272,0.477165 0.347029,0.6073 0,0.04338 0.08676,0.173515 0.08676,0.08676 0.08676,0.08676 v 0.390407 q 0,0.694058 -0.563922,1.171223 -0.520543,0.477164 -1.301358,0.824193 -0.737436,0.30365 -1.518251,0.477165 -0.780815,0.130136 -1.301358,0.130136 -0.780815,0 -1.56163,-0.260272 -0.780815,-0.30365 -1.518251,-0.520543 -0.04338,0 -0.130136,-0.04338 -0.04338,-0.04338 -0.04338,-0.04338 L 85.115905,57.57071 H 83.42414 q -0.303651,0.216893 -0.390408,0.173515 -0.04338,-0.04338 -0.390407,0.08676 -0.563922,0.216893 -1.084465,0.477165 -0.520543,0.260271 -1.084465,0.477164 -0.04338,0 -0.260272,0.04338 -0.216893,0.04338 -0.260271,0.04338 -0.08676,0 -0.260272,0.04338 -0.130136,0.08676 -0.173514,0.130136 H 77.047485 Q 76.787214,58.74194 76.310049,58.74194 75.832884,58.69856 75.485856,58.525047 75.138827,58.308154 74.705041,57.917746 74.314633,57.48396 73.924226,57.48396 Z m 3.036502,-6.983955 q 0.216893,0.347029 0.173514,0.390408 -0.04338,0 0.08676,0.390407 0.260271,0.650679 0.780815,1.301358 0.563921,0.650679 1.171222,1.041087 0.130136,0.08676 0.433786,0.260271 0.347029,0.173515 0.433786,0.173515 h 1.561629 q 0.04338,-0.04338 0.173515,-0.08676 0.130136,-0.04338 0.173514,-0.08676 0.04338,0 0.173515,0 0.130135,-0.04338 0.173514,-0.08676 0.867572,-0.520543 1.605008,-1.388115 0.780815,-0.867572 1.127844,-1.821901 0.130136,-0.433786 0.173514,-0.867572 0.04338,-0.433786 0.260272,-0.824194 v -4.381239 q -0.130136,-0.216893 -0.130136,-0.390407 0.04338,-0.173514 -0.04338,-0.477165 -0.08676,-0.347028 -0.30365,-0.6073 -0.173514,-0.260272 -0.260271,-0.6073 -0.563922,-0.607301 -1.214601,-1.25798 -0.650679,-0.650679 -1.56163,-0.650679 -0.737436,0 -1.474872,0.347029 -0.694058,0.347029 -1.301358,0.867572 -0.607301,0.520543 -1.041087,1.214601 -0.433786,0.650679 -0.650679,1.301358 -0.08676,0.30365 -0.216893,0.867572 -0.08676,0.520543 -0.30365,0.737436 z"
         style="font-size:43.3786px;line-height:125%"
         id="path3742"
         inkscape:label="d" />
      <path
         d="m 53.362763,58.785315 q -0.216893,-0.216893 -0.390407,-0.173514 -0.130136,0 -0.390408,-0.08676 -0.954329,-0.347029 -1.691765,-0.997708 -0.737436,-0.650679 -1.301358,-1.431494 -0.173514,-0.260272 -0.260272,-0.563922 -0.04338,-0.30365 -0.30365,-0.520543 v -1.301358 l -0.260271,-0.260272 v -10.23735 q -0.216894,-0.216893 -0.216894,-0.260271 0.04338,-0.08676 -0.08676,-0.347029 -0.347029,-0.824193 -0.867572,-1.56163 -0.520543,-0.737436 -0.520543,-1.691765 0,-0.563922 0.30365,-0.867572 0.30365,-0.30365 0.737436,-0.694058 0.477165,-0.433786 1.388116,-0.563922 0.91095,-0.130135 1.518251,-0.130135 0.347029,0 0.91095,0.130135 0.607301,0.130136 0.910951,0.390408 l 1.127844,1.127843 q 0.08676,0.303651 0.30365,0.563922 v 1.041087 l 0.260271,0.260271 v 4.815025 l 0.216893,0.347029 v 2.77623 l -0.173514,0.520543 v 2.212309 q 0,0.260272 0.260272,0.694058 0.260271,0.433786 0.6073,0.91095 0.390407,0.433786 0.780815,0.780815 0.433786,0.30365 0.737436,0.30365 h 1.388115 q 0.173515,-0.173514 0.520544,-0.260271 0.650679,-0.520543 1.127843,-0.954329 0.477165,-0.477165 0.954329,-1.127844 0.08676,-0.347029 0.303651,-0.650679 0.216893,-0.347029 0.347028,-0.6073 0.173515,-0.390408 0.216893,-0.867572 0.08676,-0.477165 0.303651,-0.867573 V 43.64618 q -0.216893,-0.390407 -0.303651,-0.737436 -0.08676,-0.347029 -0.30365,-0.737436 -0.433786,-0.737436 -0.997708,-1.344737 -0.520543,-0.650679 -0.520543,-1.561629 0,-0.520544 0.216893,-0.780815 0.216893,-0.30365 0.520543,-0.477165 0.347029,-0.216893 0.737437,-0.347029 0.390407,-0.130135 0.737436,-0.347028 h 1.821901 q 0.04338,-0.04338 0.130136,-0.08676 0.08676,-0.08676 0.130136,-0.130135 h 0.04338 0.04338 q 0.04338,0 0.130136,0.08676 0.08676,0.08676 0.130135,0.08676 0.08676,0.04338 0.433787,0.08676 0.347028,0 0.433786,0 0.04338,0 0.08676,0.04338 0.04338,0.04338 0.08676,0.04338 0.347029,0.216893 0.6073,0.390408 0.303651,0.130136 0.563922,0.390407 0.216893,0.30365 0.347029,0.694058 0.173514,0.390407 0.477165,0.650679 v 1.041086 l 0.260271,0.260272 v 10.671136 q 0.30365,0.520543 0.563922,1.084465 0.260272,0.520543 0.520543,1.084465 0.130136,0.260271 0.216893,0.563922 0.08676,0.260271 0.30365,0.477164 v 0.520543 q 0,1.041087 -0.737436,1.605009 -0.694057,0.520543 -1.518251,0.954329 -0.30365,0.173514 -0.737436,0.173514 -0.433786,0 -0.6073,0.260272 h -1.908665 q -0.08676,-0.08676 -0.433786,-0.2169 Q 63.253084,57.917743 62.819298,57.830986 62.428891,57.70085 62.038483,57.614093 61.691455,57.483957 61.51794,57.3972 h -1.344736 q -0.04338,0 -0.130136,0.04338 -0.08676,0.04338 -0.130136,0.04338 -0.477165,0.130136 -0.910951,0.390408 -0.433786,0.216893 -0.91095,0.390407 -0.390408,0.130136 -0.824194,0.216893 -0.390407,0.08676 -0.737436,0.30365 -0.173514,0 -0.650679,0 -0.433786,0.04338 -0.6073,0.04338 h -0.04338 -0.130136 q -0.216893,0 -0.867572,-0.04338 -0.650679,0 -0.867572,0 z"
         style="font-size:43.3786px;line-height:125%"
         id="path3740"
         inkscape:label="u" />
      <path
         d="m 23.648387,66.116299 q 0,0.650679 0.433786,1.171222 0.433786,0.520543 1.041086,0.737436 0.390408,0.08676 0.563922,0.04338 0.216893,0 0.520543,0.216893 h 4.251103 q 0.04338,0 0.173515,-0.04338 0.173514,0 0.260271,-0.04338 0.04338,0 0.08676,-0.04338 0.08676,-0.04338 0.08676,-0.04338 0.780814,-0.173514 1.127843,-0.390407 0.347029,-0.216893 0.824194,-0.824193 v -0.52054 q 0,-0.650679 -0.260272,-1.171222 -0.260272,-0.477165 -0.6073,-0.997708 -0.303651,-0.520543 -0.563922,-1.084465 -0.260272,-0.520543 -0.260272,-1.257979 0,-0.737436 0.477165,-1.214601 0.477164,-0.477165 0.954329,-0.910951 0.260272,-0.04338 0.520543,-0.30365 h 3.383531 q 0.30365,-0.30365 0.867572,-0.347029 0.563922,0 0.824194,0 0.477164,-0.30365 1.041086,-0.477164 0.563922,-0.216893 1.041086,-0.563922 1.127844,-0.780815 2.125552,-1.821901 1.041086,-1.084465 1.821901,-2.299066 0.780815,-1.25798 1.214601,-2.646095 0.433786,-1.388115 0.433786,-2.819609 l 0.173514,-0.347029 V 47.4635 q 0,-1.388115 -0.260271,-2.906366 -0.216893,-1.56163 -0.780815,-2.819609 -0.173514,-0.347029 -0.433786,-0.650679 -0.216893,-0.347029 -0.347029,-0.694058 l -1.69177,-1.648387 Q 42.4747,38.657644 42.301185,38.527508 42.127671,38.353994 41.910778,38.223858 41.52037,38.006965 40.999827,37.876829 40.522663,37.703315 40.175634,37.399665 h -1.214601 l -0.347029,-0.216893 h -1.214601 l -0.390407,0.173514 q -0.6073,-0.04338 -1.171222,0.08676 -0.563922,0.130136 -1.127844,0.303651 -0.563922,0.173514 -1.127844,0.347028 -0.563921,0.130136 -1.171222,0.130136 -0.347029,0 -0.780815,0 -0.390407,0 -0.737436,-0.08676 -0.563922,-0.173514 -1.084465,-0.347029 -0.520543,-0.173514 -1.127843,-0.173514 -0.563922,0 -0.95433,0 -0.390407,0 -0.997707,0.08676 -0.04338,0.04338 -0.520544,0.216893 -0.433786,0.173514 -0.997708,0.347029 -0.520543,0.173514 -1.041086,0.347029 -0.477165,0.130135 -0.6073,0.130135 -0.477165,0.390408 -0.824194,0.780815 -0.30365,0.390408 -0.30365,0.997708 0,0.477165 0.216893,0.910951 0.260272,0.433786 0.563922,0.867572 0.347029,0.390407 0.650679,0.780815 0.347029,0.390407 0.563922,0.737436 0.216893,0.30365 0.260271,0.6073 0.08676,0.30365 0.260272,0.607301 l -0.04338,6.81044 v 0.347029 q -0.04338,0.997708 -0.08676,2.082173 -0.04338,1.084465 -0.04338,2.082172 v 0.563922 l 0.173515,0.260272 v 4.381239 q 0,0.650679 -0.216893,1.171222 -0.173515,0.563922 -0.433786,1.084465 -0.260272,0.563922 -0.477165,1.127843 -0.173514,0.563922 -0.173514,1.171223 z M 33.798979,55.965706 q -0.694057,-0.520543 -1.301358,-1.127844 -0.563921,-0.6073 -0.867572,-1.388115 -0.04338,-0.04338 -0.08676,-0.173514 0,-0.173515 0,-0.216893 -0.04338,-0.04338 -0.130136,-0.173515 -0.04338,-0.173514 -0.08676,-0.260271 v -4.684889 l 0.30365,-2.125552 q 0.173515,-0.30365 0.216893,-0.6073 0.08676,-0.30365 0.303651,-0.6073 0.6073,-0.910951 1.431493,-1.605009 0.867573,-0.737436 2.038795,-0.737436 1.084465,0 1.952037,0.607301 0.867572,0.563921 1.474872,1.474872 0.173515,0.30365 0.216893,0.650679 0.08676,0.30365 0.30365,0.563922 v 3.947453 q -0.04338,0.04338 -0.08676,0.173514 0,0.130136 0,0.173514 -0.04338,0.130136 -0.08676,0.607301 0,0.477164 0,0.6073 -0.216893,0.347029 -0.30365,0.737436 -0.08676,0.390408 -0.216893,0.737437 -0.216893,0.477164 -0.563922,0.91095 -0.30365,0.390408 -0.477165,0.867572 l -1.171222,1.127844 q -0.260271,0 -0.433786,0.216893 -0.130136,0.173514 -0.347029,0.30365 -0.04338,0 -0.260271,0.04338 -0.216893,0.04338 -0.260272,0.04338 -0.04338,0 -0.130136,0.08676 -0.08676,0.08676 -0.130135,0.08676 h -0.303651 q -0.30365,0 -0.520543,-0.08676 -0.173514,-0.130135 -0.477165,-0.173514 z"
         style="font-size:43.3786px;line-height:125%"
         id="path3738"
         inkscape:label="p" />
    </g>
    <flowRoot
       xml:space="preserve"
       id="flowRoot2816"
       style="font-style:normal;font-variant:normal;font-weight:normal;font-stretch:normal;line-height:0.01%;font-family:'Impossibilium BRK';-inkscape-font-specification:'Impossibilium BRK';text-align:start;writing-mode:lr-tb;text-anchor:start;display:none;fill:#000000;fill-opacity:1;stroke:none;filter:url(#filter3742)"
       transform="matrix(2.2591913,0,0,2.2591913,103.43902,859.88841)"
       inkscape:label="name_as_text"
       sodipodi:insensitive="true"><flowRegion
         id="flowRegion2818"
         style="font-style:normal;font-variant:normal;font-weight:normal;font-stretch:normal;font-family:'Impossibilium BRK';-inkscape-font-specification:'Impossibilium BRK'"><rect
           id="rect2820"
           width="524"
           height="113"
           x="22"
           y="18"
           style="font-size:43.37858582px;font-style:normal;font-variant:normal;font-weight:normal;font-stretch:normal;text-align:start;line-height:125%;writing-mode:lr-tb;text-anchor:start;fill:#000000;fill-opacity:1;font-family:'Impossibilium BRK';-inkscape-font-specification:'Impossibilium BRK';" /></flowRegion><flowPara
         id="flowPara2822"
         style="font-style:normal;font-variant:normal;font-weight:normal;font-stretch:normal;font-size:43.3786px;line-height:125%;font-family:'Impossibilium BRK';-inkscape-font-specification:'Impossibilium BRK';text-align:start;writing-mode:lr-tb;text-anchor:start;fill:#000000;fill-opacity:1">puddletag</flowPara></flowRoot>
    <text
       xml:space="preserve"
       style="font-style:normal;font-variant:normal;font-weight:bold;font-stretch:normal;font-size:11.9895px;line-height:0%;font-family:'DejaVu Sans Mono';-inkscape-font-specification:'DejaVu Sans Mono Bold';text-align:start;writing-mode:lr-tb;text-anchor:start;display:none;fill:#241c1c;fill-opacity:1;stroke:none;stroke-width:0.999129"
       x="422.27377"
       y="1018.5085"
       id="text5257"
       inkscape:label="version"
       transform="scale(0.99912874,1.000872)"><tspan
         sodipodi:role="line"
         x="0"
         y="0"
         style="font-style:normal;font-variant:normal;font-weight:bold;font-stretch:normal;font-size:21.9808px;line-height:1.25;font-family:Karla;-inkscape-font-specification:'Karla Bold';stroke-width:0.999129"
         id="tspan860">v2.1.1</tspan></text>
  </g>
</svg>
