/* XPM */
static char *puddletag[] = {
/* columns rows colors chars-per-pixel */
"32 32 102 2",
"   c #44474C",
".  c #45484B",
"X  c #45494E",
"o  c #464A4F",
"O  c #474B50",
"+  c #474B51",
"@  c #474C52",
"#  c #484C52",
"$  c #484C53",
"%  c #484D53",
"&  c #484D54",
"*  c #494E54",
"=  c #4A4E55",
"-  c #494E56",
";  c #494F56",
":  c #4A4F57",
">  c #4A5057",
",  c #4A5058",
"<  c #4D545C",
"1  c #4D545D",
"2  c #4D555E",
"3  c #4E565F",
"4  c #4E5660",
"5  c #4F5761",
"6  c #4F5862",
"7  c #4F5863",
"8  c #505863",
"9  c #515964",
"0  c #515A66",
"q  c #525A66",
"w  c #525B67",
"e  c #535C68",
"r  c #55606E",
"t  c #576373",
"y  c #586372",
"u  c #596575",
"i  c #596676",
"p  c #5A6778",
"a  c #5B6879",
"s  c #5C697A",
"d  c #5C6A7C",
"f  c #5E6C7E",
"g  c #5E6D80",
"h  c #606F84",
"j  c #607084",
"k  c #617186",
"l  c #627389",
"z  c #63748A",
"x  c #64748A",
"c  c #64758B",
"v  c #63758C",
"b  c #65768D",
"n  c #65778E",
"m  c #65778F",
"M  c #677991",
"N  c #667992",
"B  c #677A93",
"V  c #687B94",
"C  c #687C96",
"Z  c #697D97",
"A  c #6B809B",
"S  c #6C819C",
"D  c #6D829D",
"F  c #6D829E",
"G  c #6D839F",
"H  c #6E84A0",
"J  c #6F84A0",
"K  c #6F85A2",
"L  c #6F86A3",
"P  c #7086A3",
"I  c #7187A4",
"U  c #7187A5",
"Y  c #7188A6",
"T  c #7189A7",
"R  c #7289A7",
"E  c #728AA9",
"W  c #738AA9",
"Q  c #748DAC",
"!  c #758DAD",
"~  c #758EAE",
"^  c #758EAF",
"/  c #7790B0",
"(  c #7790B2",
")  c #7791B2",
"_  c #7891B2",
"`  c #7892B3",
"'  c #7892B4",
"]  c #7992B4",
"[  c #7893B4",
"{  c #7993B4",
"}  c #7993B5",
"|  c #7993B6",
" . c #7994B6",
".. c #7994B7",
"X. c #7995B7",
"o. c #7A94B6",
"O. c #7A94B7",
"+. c #7A95B7",
"@. c #7A95B8",
"#. c #7B96B9",
"$. c #7B96BA",
"%. c None",
/* pixels */
"%.%.%.%.%.%.%.%.%.%.%.%.%.%.%.%.%.%.%.%.%.%.%.%.%.%.%.%.%.%.%.%.",
"%.%.%.%.%.%.%.%.%.%.%.%.%.%.%.%.%.%.%.%.%.%.%.%.%.%.%.%.%.%.%.%.",
"%.%.%.%.%.%.%.%.%.%.%.%.%.%.%.%.%.%.%.%.%.%.%.%.%.%.%.%.%.%.%.%.",
"%.%.%.%.%.%.%.%.%.%.%.%.%.%.%.%.%.%.%.%.%.%.%.%.%.%.%.%.%.%.%.%.",
"%.%.%.%.%.%.%.%.%.%.%.%.%.%.%.%.%.%.%.%.%.%.%.%.%.%.%.%.%.%.%.%.",
"%.%.%.%.%.%.%.%.%.%.%.%.%.%.%.%.%.%.%.%.%.%.%.%.%.%.%.%.%.%.%.%.",
"%.%.%.%.%.%.%.%.%.%.%.%.%.%.%.%.%.%.%.%.%.%.%.%.%.%.%.%.%.%.%.%.",
"%.%.%.%.%.%.%.%.%.%.%.%.%.%.%.%.%.%.%.%.%.%.%.%.%.%.%.%.%.%.%.%.",
"%.%.%.%.%.%.%.%.%.%.%.%.%.:   %.%.7 k N t   %.%.%.%.%.%.%.%.%.%.",
"%.%.%.%.%.%.%.%.%.%.%.9 B L A f v ^ @.@.] B * %.%.%.%.%.%.%.%.%.",
"%.%.%.%.%.%.%.%.%.%.e R @.@.[ @.] o.o.] ] ] p %.%.%.%.%.%.%.%.%.",
"%.%.%.%.%.%.%.%.2 p D @.[ [ @.[ @.] @.] ] @.I 9 %.%.%.%.%.%.%.%.",
"%.%.%.%.%.%.%.i R ] o.[ o.o.[ o.o.o.] o.o.o.@.E e %.%.%.%.%.%.%.",
"%.%.%.%.%.%.2 R o.] o.o.[ | @.[ ] o.] o.o.] o.] v %.%.%.%.%.%.%.",
"%.%.%.%.%.%.s o.] o.o.o.o.[ [ @.o.] @.] @.o.] @.K % %.%.%.%.%.%.",
"%.%.%.%.%.2 V o.@.] ] o.o.o.o.[ ] @.] o.] o.] @.] v 9 , %.%.%.%.",
"%.%.%.7 v E [ o.o.o.o.o.o.] o.o.o.o.@.] [ [ @.] ] @.^ K f * %.%.",
"%.%.* D @.o.[ o.o.o.( o.] o.o.] ] ] o.o.[ @.[ [ ] @.@.] ] l %.%.",
"%.%.i ( ] o.o.o.o.o.( o.o.o.o.o.] ] @.] @.@.[ [ ] @.[ [ o.I 2 %.",
"%.%.z o.] o.o.o.o.o.o.[ o.o.o.] @.o.[ @.] [ @.@.] @.o.@.] ^ r %.",
"%.%.i ( o.o.o.o.| | | o.o.] o.o.o.[ @.[ [ ] @.[ @.] ] o.@.K 4 %.",
"%.%.% N o.@.o.o.o.o.o.| o.o.o.] [ o.] [ o.o.[ @.] @.@.] _ f %.%.",
"%.%.%.* k D D m C R Q o.o.o.o.@.@.@.o.o.o.o.o.[ ^ D K D y %.%.%.",
"%.%.%.%.%.@ O %.%.@ 7 h G E D c v z E [ ( E C g 2 @ @ X %.%.%.%.",
"%.%.%.%.%.%.%.%.%.%.%.%.* 4 O %.%.%.* 9 7 * %.%.%.%.%.%.%.%.%.%.",
"%.%.%.%.%.%.%.%.%.%.%.%.%.%.%.%.%.%.%.%.%.%.%.%.%.%.%.%.%.%.%.%.",
"%.%.%.%.%.%.%.%.%.%.%.%.%.%.%.%.%.%.%.%.%.%.%.%.%.%.%.%.%.%.%.%.",
"%.%.%.%.%.%.%.%.%.%.%.%.%.%.%.%.%.%.%.%.%.%.%.%.%.%.%.%.%.%.%.%.",
"%.%.%.%.%.%.%.%.%.%.%.%.%.%.%.%.%.%.%.%.%.%.%.%.%.%.%.%.%.%.%.%.",
"%.%.%.%.%.%.%.%.%.%.%.%.%.%.%.%.%.%.%.%.%.%.%.%.%.%.%.%.%.%.%.%.",
"%.%.%.%.%.%.%.%.%.%.%.%.%.%.%.%.%.%.%.%.%.%.%.%.%.%.%.%.%.%.%.%.",
"%.%.%.%.%.%.%.%.%.%.%.%.%.%.%.%.%.%.%.%.%.%.%.%.%.%.%.%.%.%.%.%."
};
